<svg width="532" height="666" viewBox="0 0 532 666" fill="none" xmlns="http://www.w3.org/2000/svg">
<path d="M229.688 80.9473H230.889L231.607 84.9732L232.326 80.9473H233.527V86.1955H232.926V80.9887L232.208 85.0146H231.007L230.288 80.9887V86.1955H229.688V80.9473Z" fill="#298DFF"/>
<path d="M334.653 163.938L334.626 163.951C334.37 163.786 334.177 163.558 334.039 163.268C333.901 162.978 333.832 162.646 333.832 162.273C333.832 161.894 333.901 161.562 334.039 161.272C334.177 160.982 334.377 160.754 334.633 160.588C334.888 160.423 335.192 160.34 335.544 160.34C335.883 160.34 336.18 160.416 336.435 160.568C336.691 160.72 336.891 160.941 337.036 161.224C337.181 161.507 337.25 161.831 337.25 162.204C337.25 162.253 337.243 162.336 337.236 162.453H334.522C334.55 162.847 334.653 163.15 334.833 163.364C335.013 163.579 335.254 163.682 335.551 163.682C335.8 163.682 336 163.627 336.152 163.516C336.304 163.406 336.414 163.24 336.483 163.026H337.174C337.07 163.413 336.884 163.703 336.608 163.896C336.331 164.09 335.986 164.186 335.565 164.186C335.213 164.186 334.909 164.103 334.653 163.938ZM336.552 161.963L336.546 161.976C336.532 161.762 336.483 161.569 336.394 161.396C336.304 161.224 336.186 161.093 336.041 160.996C335.896 160.899 335.724 160.851 335.53 160.851C335.247 160.851 335.019 160.948 334.847 161.134C334.674 161.32 334.564 161.597 334.522 161.963H336.552Z" fill="#298DFF"/>
<path d="M125.064 186.255L125.036 186.213C124.753 186.082 124.525 185.889 124.353 185.64C124.18 185.392 124.069 185.095 124.021 184.756H124.746C124.788 185.109 124.919 185.371 125.14 185.55C125.361 185.73 125.651 185.82 126.003 185.82C126.245 185.82 126.452 185.778 126.631 185.702C126.811 185.626 126.949 185.516 127.039 185.378C127.129 185.24 127.177 185.074 127.177 184.888C127.177 184.701 127.136 184.556 127.06 184.453C126.984 184.349 126.873 184.266 126.728 184.211C126.583 184.156 126.362 184.087 126.065 184.011L125.457 183.852C125.064 183.748 124.753 183.582 124.518 183.361C124.284 183.14 124.166 182.844 124.166 182.471C124.166 182.201 124.249 181.953 124.408 181.732C124.567 181.511 124.781 181.338 125.05 181.214C125.319 181.089 125.616 181.027 125.934 181.027C126.272 181.027 126.569 181.089 126.825 181.207C127.08 181.324 127.287 181.49 127.446 181.704C127.605 181.918 127.709 182.174 127.757 182.464H127.032C126.963 182.174 126.839 181.96 126.652 181.821C126.466 181.683 126.231 181.614 125.948 181.614C125.754 181.614 125.575 181.649 125.409 181.718C125.243 181.787 125.112 181.884 125.016 182.008C124.919 182.132 124.871 182.27 124.871 182.429C124.871 182.588 124.905 182.719 124.974 182.823C125.043 182.926 125.147 183.009 125.292 183.071C125.437 183.134 125.637 183.203 125.893 183.272L126.5 183.43C126.832 183.52 127.101 183.624 127.301 183.741C127.502 183.859 127.653 184.004 127.75 184.183C127.847 184.363 127.895 184.584 127.895 184.853C127.895 185.164 127.819 185.44 127.66 185.682C127.502 185.923 127.281 186.11 126.997 186.248C126.714 186.386 126.39 186.455 126.024 186.455C125.665 186.455 125.347 186.386 125.064 186.255Z" fill="#298DFF"/>
<path d="M440.745 225.648H441.946L442.664 229.674L443.383 225.648H444.584V230.897H443.983V225.69L443.265 229.716H442.064L441.346 225.69V230.897H440.745V225.648Z" fill="#298DFF"/>
<path d="M149.249 264.123H149.242C148.979 263.965 148.779 263.737 148.634 263.447C148.489 263.157 148.42 262.818 148.42 262.438C148.42 262.059 148.489 261.72 148.634 261.43C148.779 261.14 148.986 260.912 149.249 260.753C149.511 260.595 149.822 260.512 150.174 260.512C150.526 260.512 150.837 260.595 151.099 260.753C151.362 260.912 151.562 261.14 151.707 261.43C151.852 261.72 151.921 262.059 151.921 262.438C151.921 262.818 151.852 263.157 151.707 263.447C151.562 263.737 151.362 263.965 151.099 264.123C150.837 264.282 150.526 264.365 150.174 264.365C149.822 264.365 149.511 264.282 149.249 264.123ZM149.228 263.198L149.221 263.226C149.304 263.44 149.428 263.605 149.587 263.723C149.746 263.84 149.939 263.895 150.167 263.895C150.395 263.895 150.588 263.833 150.747 263.716C150.906 263.599 151.023 263.433 151.106 263.219C151.189 263.005 151.231 262.749 151.231 262.459C151.231 262.169 151.189 261.914 151.106 261.699C151.023 261.485 150.906 261.32 150.747 261.202C150.588 261.085 150.395 261.023 150.167 261.023C149.939 261.023 149.746 261.078 149.587 261.195C149.428 261.313 149.311 261.478 149.228 261.693C149.145 261.907 149.104 262.155 149.104 262.445C149.104 262.735 149.145 262.984 149.228 263.198Z" fill="#298DFF"/>
<path d="M55.9188 308.696L55.8912 308.655C55.6081 308.524 55.3802 308.33 55.2076 308.082C55.0349 307.833 54.9244 307.536 54.8761 307.198H55.6012C55.6426 307.55 55.7738 307.812 55.9948 307.992C56.2158 308.171 56.5058 308.261 56.858 308.261C57.0997 308.261 57.3069 308.22 57.4864 308.144C57.6659 308.068 57.8041 307.957 57.8938 307.819C57.9836 307.681 58.0319 307.515 58.0319 307.329C58.0319 307.143 57.9905 306.997 57.9145 306.894C57.8386 306.79 57.7281 306.707 57.5831 306.652C57.4381 306.597 57.2171 306.528 56.9201 306.452L56.3125 306.293C55.9188 306.19 55.6081 306.024 55.3733 305.803C55.1385 305.582 55.0211 305.285 55.0211 304.912C55.0211 304.643 55.104 304.394 55.2628 304.173C55.4216 303.952 55.6357 303.78 55.905 303.655C56.1743 303.531 56.4713 303.469 56.7889 303.469C57.1273 303.469 57.4243 303.531 57.6798 303.648C57.9353 303.766 58.1424 303.931 58.3013 304.145C58.4601 304.36 58.5637 304.615 58.612 304.905H57.8869C57.8179 304.615 57.6936 304.401 57.5071 304.263C57.3207 304.125 57.0859 304.056 56.8028 304.056C56.6094 304.056 56.4299 304.09 56.2641 304.159C56.0984 304.228 55.9672 304.325 55.8705 304.449C55.7738 304.574 55.7255 304.712 55.7255 304.871C55.7255 305.029 55.76 305.161 55.8291 305.264C55.8981 305.368 56.0017 305.451 56.1467 305.513C56.2917 305.575 56.492 305.644 56.7475 305.713L57.3552 305.872C57.6867 305.962 57.956 306.065 58.1562 306.183C58.3565 306.3 58.5084 306.445 58.6051 306.625C58.7018 306.804 58.7501 307.025 58.7501 307.294C58.7501 307.605 58.6742 307.881 58.5153 308.123C58.3565 308.365 58.1355 308.551 57.8524 308.689C57.5693 308.827 57.2447 308.897 56.8787 308.897C56.5196 308.897 56.202 308.827 55.9188 308.696Z" fill="#298DFF"/>
<path d="M178.693 342.087L178.665 342.045C178.382 341.914 178.154 341.721 177.981 341.472C177.809 341.224 177.698 340.927 177.65 340.588H178.375C178.417 340.941 178.548 341.203 178.769 341.383C178.99 341.562 179.28 341.652 179.632 341.652C179.874 341.652 180.081 341.61 180.26 341.534C180.44 341.458 180.578 341.348 180.668 341.21C180.758 341.072 180.806 340.906 180.806 340.72C180.806 340.533 180.764 340.388 180.688 340.285C180.613 340.181 180.502 340.098 180.357 340.043C180.212 339.988 179.991 339.919 179.694 339.843L179.086 339.684C178.693 339.58 178.382 339.414 178.147 339.193C177.912 338.972 177.795 338.676 177.795 338.303C177.795 338.033 177.878 337.785 178.037 337.564C178.196 337.343 178.41 337.17 178.679 337.046C178.948 336.922 179.245 336.859 179.563 336.859C179.901 336.859 180.198 336.922 180.454 337.039C180.709 337.156 180.916 337.322 181.075 337.536C181.234 337.75 181.338 338.006 181.386 338.296H180.661C180.592 338.006 180.467 337.792 180.281 337.654C180.095 337.515 179.86 337.446 179.577 337.446C179.383 337.446 179.204 337.481 179.038 337.55C178.872 337.619 178.741 337.716 178.644 337.84C178.548 337.964 178.499 338.102 178.499 338.261C178.499 338.42 178.534 338.551 178.603 338.655C178.672 338.758 178.776 338.841 178.921 338.903C179.066 338.966 179.266 339.035 179.521 339.104L180.129 339.263C180.461 339.352 180.73 339.456 180.93 339.573C181.13 339.691 181.282 339.836 181.379 340.015C181.476 340.195 181.524 340.416 181.524 340.685C181.524 340.996 181.448 341.272 181.289 341.514C181.13 341.755 180.909 341.942 180.626 342.08C180.343 342.218 180.019 342.287 179.653 342.287C179.294 342.287 178.976 342.218 178.693 342.087Z" fill="#298DFF"/>
<path d="M509.231 381.48H509.963L507.65 386.729H506.918L509.231 381.48Z" fill="#298DFF"/>
<path d="M248.164 392.611H248.896L246.582 397.86H245.85L248.164 392.611Z" fill="#298DFF"/>
<path d="M361.087 430.741H362.572V428.062H361.301V427.551H363.248V430.741H364.733V431.252H361.087V430.741ZM362.392 426.004H363.248V426.86H362.392V426.004Z" fill="#298DFF"/>
<path d="M27.064 470.527H27.796L25.4826 475.776H24.7506L27.064 470.527Z" fill="#298DFF"/>
<path d="M348.663 503.92H349.864L350.582 507.946L351.301 503.92H352.502V509.168H351.901V503.961L351.183 507.987H349.982L349.264 503.961V509.168H348.663V503.92Z" fill="#298DFF"/>
<path d="M123.38 586.573H124.864V583.894H123.594V583.383H125.541V586.573H127.026V587.084H123.38V586.573ZM124.685 581.836H125.541V582.692H124.685V581.836Z" fill="#298DFF"/>
<path d="M392.659 598.049H392.652C392.39 597.89 392.189 597.662 392.044 597.372C391.899 597.082 391.83 596.744 391.83 596.364C391.83 595.984 391.899 595.646 392.044 595.356C392.189 595.066 392.396 594.838 392.659 594.679C392.921 594.52 393.232 594.438 393.584 594.438C393.936 594.438 394.247 594.52 394.51 594.679C394.772 594.838 394.972 595.066 395.117 595.356C395.262 595.646 395.331 595.984 395.331 596.364C395.331 596.744 395.262 597.082 395.117 597.372C394.972 597.662 394.772 597.89 394.51 598.049C394.247 598.208 393.936 598.291 393.584 598.291C393.232 598.291 392.921 598.208 392.659 598.049ZM392.638 597.124L392.631 597.151C392.714 597.365 392.838 597.531 392.997 597.649C393.156 597.766 393.349 597.821 393.577 597.821C393.805 597.821 393.999 597.759 394.157 597.642C394.316 597.524 394.434 597.359 394.516 597.144C394.599 596.93 394.641 596.675 394.641 596.385C394.641 596.095 394.599 595.839 394.516 595.625C394.434 595.411 394.316 595.245 394.157 595.128C393.999 595.011 393.805 594.949 393.577 594.949C393.349 594.949 393.156 595.004 392.997 595.121C392.838 595.239 392.721 595.404 392.638 595.618C392.555 595.832 392.514 596.081 392.514 596.371C392.514 596.661 392.555 596.91 392.638 597.124Z" fill="#298DFF"/>
<path d="M291.589 637.488H292.321L290.008 642.737H289.276L291.589 637.488Z" fill="#298DFF"/>
<path d="M286.616 637.488H287.348L285.035 642.737H284.303L286.616 637.488Z" fill="#298DFF"/>
</svg>
