<svg width="532" height="666" viewBox="0 0 532 666" fill="none" xmlns="http://www.w3.org/2000/svg">
<path d="M249.547 58.6934H250.748L251.466 62.7193L252.185 58.6934H253.386V63.9416H252.785V58.7348L252.067 62.7607H250.866L250.147 58.7348V63.9416H249.547V58.6934Z" fill="#298DFF"/>
<path d="M350.409 141.347H351.894V138.667H350.623V138.156H352.571V141.347H354.056V141.858H350.409V141.347ZM351.715 136.609H352.571V137.466H351.715V136.609Z" fill="#298DFF"/>
<path d="M159.074 197.399L159.06 197.393C158.873 197.268 158.735 197.096 158.639 196.875C158.542 196.654 158.494 196.398 158.494 196.115V196.101V193.809H159.17V195.998V196.011C159.17 196.377 159.246 196.647 159.391 196.826C159.536 197.006 159.744 197.096 160.013 197.096C160.282 197.096 160.489 197.006 160.634 196.826C160.779 196.647 160.848 196.371 160.848 196.005V193.815H161.525V197.517H160.848V196.778C160.766 197.013 160.627 197.206 160.441 197.358C160.255 197.51 160.02 197.586 159.744 197.586C159.481 197.586 159.26 197.524 159.074 197.399Z" fill="#298DFF"/>
<path d="M72.8311 230.737H72.8242C72.5618 230.578 72.3615 230.35 72.2165 230.06C72.0715 229.77 72.0024 229.431 72.0024 229.052C72.0024 228.672 72.0715 228.333 72.2165 228.043C72.3615 227.753 72.5687 227.526 72.8311 227.367C73.0935 227.208 73.4043 227.125 73.7565 227.125C74.1086 227.125 74.4194 227.208 74.6818 227.367C74.9442 227.526 75.1445 227.753 75.2895 228.043C75.4345 228.333 75.5036 228.672 75.5036 229.052C75.5036 229.431 75.4345 229.77 75.2895 230.06C75.1445 230.35 74.9442 230.578 74.6818 230.737C74.4194 230.895 74.1086 230.978 73.7565 230.978C73.4043 230.978 73.0935 230.895 72.8311 230.737ZM72.8104 229.811L72.8035 229.839C72.8864 230.053 73.0107 230.219 73.1695 230.336C73.3283 230.453 73.5217 230.509 73.7495 230.509C73.9774 230.509 74.1708 230.447 74.3296 230.329C74.4884 230.212 74.6058 230.046 74.6887 229.832C74.7716 229.618 74.813 229.362 74.813 229.072C74.813 228.782 74.7716 228.527 74.6887 228.313C74.6058 228.099 74.4884 227.933 74.3296 227.816C74.1708 227.698 73.9774 227.636 73.7495 227.636C73.5217 227.636 73.3283 227.691 73.1695 227.809C73.0107 227.926 72.8933 228.092 72.8104 228.306C72.7275 228.52 72.6861 228.769 72.6861 229.059C72.6861 229.349 72.7275 229.597 72.8104 229.811Z" fill="#298DFF"/>
<path d="M432.581 253.056L432.567 253.049C432.381 252.925 432.242 252.752 432.146 252.531C432.049 252.31 432.001 252.054 432.001 251.771V251.757V249.465H432.677V251.654V251.668C432.677 252.034 432.753 252.303 432.898 252.483C433.043 252.662 433.251 252.752 433.52 252.752C433.789 252.752 433.996 252.662 434.141 252.483C434.286 252.303 434.356 252.027 434.356 251.661V249.472H435.032V253.173H434.356V252.434C434.273 252.669 434.135 252.862 433.948 253.014C433.762 253.166 433.527 253.242 433.251 253.242C432.988 253.242 432.767 253.18 432.581 253.056Z" fill="#298DFF"/>
<path d="M160.092 303.57H160.824L158.511 308.819H157.779L160.092 303.57Z" fill="#298DFF"/>
<path d="M155.119 303.57H155.851L153.537 308.819H152.805L155.119 303.57Z" fill="#298DFF"/>
<path d="M517.022 330.964L516.995 330.922C516.711 330.791 516.484 330.598 516.311 330.349C516.138 330.101 516.028 329.804 515.979 329.465H516.705C516.746 329.818 516.877 330.08 517.098 330.259C517.319 330.439 517.609 330.529 517.961 330.529C518.203 330.529 518.41 330.487 518.59 330.411C518.769 330.335 518.907 330.225 518.997 330.087C519.087 329.949 519.135 329.783 519.135 329.597C519.135 329.41 519.094 329.265 519.018 329.161C518.942 329.058 518.831 328.975 518.686 328.92C518.541 328.865 518.32 328.795 518.024 328.72L517.416 328.561C517.022 328.457 516.711 328.291 516.477 328.07C516.242 327.849 516.125 327.552 516.125 327.18C516.125 326.91 516.207 326.662 516.366 326.441C516.525 326.22 516.739 326.047 517.008 325.923C517.278 325.798 517.575 325.736 517.892 325.736C518.231 325.736 518.528 325.798 518.783 325.916C519.039 326.033 519.246 326.199 519.405 326.413C519.563 326.627 519.667 326.883 519.715 327.173H518.99C518.921 326.883 518.797 326.669 518.611 326.53C518.424 326.392 518.189 326.323 517.906 326.323C517.713 326.323 517.533 326.358 517.368 326.427C517.202 326.496 517.071 326.593 516.974 326.717C516.877 326.841 516.829 326.979 516.829 327.138C516.829 327.297 516.863 327.428 516.932 327.532C517.002 327.635 517.105 327.718 517.25 327.78C517.395 327.843 517.595 327.912 517.851 327.981L518.459 328.139C518.79 328.229 519.059 328.333 519.26 328.45C519.46 328.568 519.612 328.713 519.708 328.892C519.805 329.072 519.854 329.293 519.854 329.562C519.854 329.873 519.778 330.149 519.619 330.391C519.46 330.632 519.239 330.819 518.956 330.957C518.673 331.095 518.348 331.164 517.982 331.164C517.623 331.164 517.305 331.095 517.022 330.964Z" fill="#298DFF"/>
<path d="M260.595 360.773H261.286L262.432 364.44L263.572 360.773H264.262L263.088 364.475H261.769L260.595 360.773Z" fill="#298DFF"/>
<path d="M208.748 381.488H209.48L207.166 386.737H206.434L208.748 381.488Z" fill="#298DFF"/>
<path d="M21.8701 448.273H23.0717L23.7899 452.299L24.508 448.273H25.7096V453.522H25.1088V448.315L24.3906 452.341H23.1891L22.4709 448.315V453.522H21.8701V448.273Z" fill="#298DFF"/>
<path d="M331.508 448.273H332.71L333.428 452.299L334.146 448.273H335.348V453.522H334.747V448.315L334.029 452.341H332.827L332.109 448.315V453.522H331.508V448.273Z" fill="#298DFF"/>
<path d="M442.713 542.401H442.707C442.444 542.242 442.244 542.014 442.099 541.724C441.954 541.434 441.885 541.096 441.885 540.716C441.885 540.336 441.954 539.998 442.099 539.708C442.244 539.417 442.451 539.19 442.713 539.031C442.976 538.872 443.287 538.789 443.639 538.789C443.991 538.789 444.302 538.872 444.564 539.031C444.827 539.19 445.027 539.417 445.172 539.708C445.317 539.998 445.386 540.336 445.386 540.716C445.386 541.096 445.317 541.434 445.172 541.724C445.027 542.014 444.827 542.242 444.564 542.401C444.302 542.559 443.991 542.642 443.639 542.642C443.287 542.642 442.976 542.559 442.713 542.401ZM442.693 541.475L442.686 541.503C442.769 541.717 442.893 541.883 443.052 542C443.211 542.118 443.404 542.173 443.632 542.173C443.86 542.173 444.053 542.111 444.212 541.993C444.371 541.876 444.488 541.71 444.571 541.496C444.654 541.282 444.695 541.026 444.695 540.736C444.695 540.446 444.654 540.191 444.571 539.977C444.488 539.763 444.371 539.597 444.212 539.48C444.053 539.362 443.86 539.3 443.632 539.3C443.404 539.3 443.211 539.355 443.052 539.473C442.893 539.59 442.776 539.756 442.693 539.97C442.61 540.184 442.568 540.433 442.568 540.723C442.568 541.013 442.61 541.261 442.693 541.475Z" fill="#298DFF"/>
<path d="M130.293 564.319H131.777V561.64H130.507V561.129H132.454V564.319H133.939V564.83H130.293V564.319ZM131.598 559.582H132.454V560.438H131.598V559.582Z" fill="#298DFF"/>
<path d="M204.01 659.758H205.211L205.929 663.784L206.647 659.758H207.849V665.006H207.248V659.799L206.53 663.825H205.328L204.61 659.799V665.006H204.01V659.758Z" fill="#298DFF"/>
<path d="M288.225 608.841H289.709V606.161H288.439V605.65H290.386V608.841H291.871V609.352H288.225V608.841ZM289.53 604.104H290.386V604.96H289.53V604.104Z" fill="#298DFF"/>
<path d="M283.976 609.241L283.962 609.234C283.776 609.11 283.638 608.937 283.541 608.716C283.445 608.495 283.396 608.24 283.396 607.957V607.943V605.65H284.073V607.839V607.853C284.073 608.219 284.149 608.489 284.294 608.668C284.439 608.848 284.646 608.937 284.915 608.937C285.185 608.937 285.392 608.848 285.537 608.668C285.682 608.489 285.751 608.212 285.751 607.846V605.657H286.428V609.359H285.751V608.62C285.668 608.855 285.53 609.048 285.344 609.2C285.157 609.352 284.922 609.428 284.646 609.428C284.384 609.428 284.163 609.366 283.976 609.241Z" fill="#298DFF"/>
</svg>
