<svg width="532" height="666" viewBox="0 0 532 666" fill="none" xmlns="http://www.w3.org/2000/svg">
<path d="M276.309 24.2891H277.511L278.229 28.315L278.947 24.2891H280.149V29.5373H279.548V24.3305L278.83 28.3564H277.628L276.91 24.3305V29.5373H276.309V24.2891Z" fill="#298DFF"/>
<path d="M215.772 136.609H216.504L214.191 141.858H213.459L215.772 136.609Z" fill="#298DFF"/>
<path d="M210.799 136.609H211.531L209.217 141.858H208.485L210.799 136.609Z" fill="#298DFF"/>
<path d="M393.577 174.739H395.062V172.06H393.791V171.549H395.739V174.739H397.223V175.25H393.577V174.739ZM394.882 170.002H395.739V170.858H394.882V170.002Z" fill="#298DFF"/>
<path d="M134.113 208.477H134.106C133.844 208.318 133.643 208.09 133.498 207.8C133.353 207.51 133.284 207.172 133.284 206.792C133.284 206.412 133.353 206.074 133.498 205.784C133.643 205.494 133.851 205.266 134.113 205.107C134.375 204.948 134.686 204.865 135.038 204.865C135.39 204.865 135.701 204.948 135.964 205.107C136.226 205.266 136.426 205.494 136.571 205.784C136.716 206.074 136.785 206.412 136.785 206.792C136.785 207.172 136.716 207.51 136.571 207.8C136.426 208.09 136.226 208.318 135.964 208.477C135.701 208.636 135.39 208.719 135.038 208.719C134.686 208.719 134.375 208.636 134.113 208.477ZM134.092 207.551L134.085 207.579C134.168 207.793 134.293 207.959 134.451 208.076C134.61 208.194 134.804 208.249 135.031 208.249C135.259 208.249 135.453 208.187 135.611 208.069C135.77 207.952 135.888 207.786 135.971 207.572C136.053 207.358 136.095 207.103 136.095 206.813C136.095 206.523 136.053 206.267 135.971 206.053C135.888 205.839 135.77 205.673 135.611 205.556C135.453 205.438 135.259 205.376 135.031 205.376C134.804 205.376 134.61 205.431 134.451 205.549C134.293 205.666 134.175 205.832 134.092 206.046C134.009 206.26 133.968 206.509 133.968 206.799C133.968 207.089 134.009 207.337 134.092 207.551Z" fill="#298DFF"/>
<path d="M191.789 275.254L191.762 275.268C191.506 275.102 191.313 274.874 191.175 274.584C191.036 274.294 190.967 273.963 190.967 273.59C190.967 273.21 191.036 272.879 191.175 272.589C191.313 272.298 191.513 272.071 191.768 271.905C192.024 271.739 192.328 271.656 192.68 271.656C193.018 271.656 193.315 271.732 193.571 271.884C193.826 272.036 194.027 272.257 194.172 272.54C194.317 272.823 194.386 273.148 194.386 273.521C194.386 273.569 194.379 273.652 194.372 273.769H191.658C191.686 274.163 191.789 274.467 191.969 274.681C192.148 274.895 192.39 274.999 192.687 274.999C192.935 274.999 193.136 274.943 193.288 274.833C193.44 274.722 193.55 274.557 193.619 274.343H194.31C194.206 274.729 194.02 275.019 193.743 275.213C193.467 275.406 193.122 275.503 192.701 275.503C192.349 275.503 192.045 275.42 191.789 275.254ZM193.688 273.279L193.681 273.293C193.667 273.079 193.619 272.885 193.529 272.713C193.44 272.54 193.322 272.409 193.177 272.312C193.032 272.216 192.86 272.167 192.666 272.167C192.383 272.167 192.155 272.264 191.983 272.45C191.81 272.637 191.699 272.913 191.658 273.279H193.688Z" fill="#298DFF"/>
<path d="M462.761 303.572H463.493L461.179 308.82H460.447L462.761 303.572Z" fill="#298DFF"/>
<path d="M41.1237 370.357H42.3252L43.0434 374.383L43.7616 370.357H44.9631V375.606H44.3624V370.399L43.6442 374.425H42.4426L41.7244 370.399V375.606H41.1237V370.357Z" fill="#298DFF"/>
<path d="M262.964 386.618L262.936 386.577C262.653 386.445 262.425 386.252 262.252 386.004C262.08 385.755 261.969 385.458 261.921 385.12H262.646C262.688 385.472 262.819 385.734 263.04 385.914C263.261 386.093 263.551 386.183 263.903 386.183C264.145 386.183 264.352 386.142 264.531 386.066C264.711 385.99 264.849 385.879 264.939 385.741C265.029 385.603 265.077 385.437 265.077 385.251C265.077 385.064 265.035 384.919 264.959 384.816C264.884 384.712 264.773 384.629 264.628 384.574C264.483 384.519 264.262 384.45 263.965 384.374L263.357 384.215C262.964 384.111 262.653 383.946 262.418 383.725C262.183 383.504 262.066 383.207 262.066 382.834C262.066 382.565 262.149 382.316 262.308 382.095C262.467 381.874 262.681 381.701 262.95 381.577C263.219 381.453 263.516 381.391 263.834 381.391C264.172 381.391 264.469 381.453 264.725 381.57C264.98 381.688 265.187 381.853 265.346 382.067C265.505 382.281 265.609 382.537 265.657 382.827H264.932C264.863 382.537 264.738 382.323 264.552 382.185C264.366 382.047 264.131 381.978 263.848 381.978C263.654 381.978 263.475 382.012 263.309 382.081C263.143 382.15 263.012 382.247 262.915 382.371C262.819 382.496 262.77 382.634 262.77 382.792C262.77 382.951 262.805 383.082 262.874 383.186C262.943 383.29 263.047 383.373 263.192 383.435C263.337 383.497 263.537 383.566 263.792 383.635L264.4 383.794C264.732 383.884 265.001 383.987 265.201 384.105C265.401 384.222 265.553 384.367 265.65 384.546C265.747 384.726 265.795 384.947 265.795 385.216C265.795 385.527 265.719 385.803 265.56 386.045C265.401 386.287 265.18 386.473 264.897 386.611C264.614 386.749 264.29 386.818 263.924 386.818C263.565 386.818 263.247 386.749 262.964 386.618Z" fill="#298DFF"/>
<path d="M510.642 414.881H511.844L512.562 418.907L513.28 414.881H514.482V420.129H513.881V414.922L513.163 418.948H511.961L511.243 414.922V420.129H510.642V414.881Z" fill="#298DFF"/>
<path d="M389.801 475.673L389.787 475.666C389.601 475.542 389.463 475.369 389.366 475.148C389.269 474.927 389.221 474.672 389.221 474.388V474.375V472.082H389.898V474.271V474.285C389.898 474.651 389.974 474.92 390.119 475.1C390.264 475.279 390.471 475.369 390.74 475.369C391.009 475.369 391.217 475.279 391.362 475.1C391.507 474.92 391.576 474.644 391.576 474.278V472.089H392.252V475.79H391.576V475.051C391.493 475.286 391.355 475.48 391.168 475.631C390.982 475.783 390.747 475.859 390.471 475.859C390.208 475.859 389.987 475.797 389.801 475.673Z" fill="#298DFF"/>
<path d="M83.8583 553.583L83.8307 553.542C83.5475 553.41 83.3197 553.217 83.147 552.968C82.9744 552.72 82.8639 552.423 82.8156 552.084H83.5406C83.5821 552.437 83.7133 552.699 83.9343 552.879C84.1552 553.058 84.4453 553.148 84.7974 553.148C85.0391 553.148 85.2463 553.106 85.4259 553.031C85.6054 552.955 85.7435 552.844 85.8333 552.706C85.9231 552.568 85.9714 552.402 85.9714 552.216C85.9714 552.029 85.93 551.884 85.854 551.781C85.778 551.677 85.6675 551.594 85.5225 551.539C85.3775 551.484 85.1565 551.415 84.8596 551.339L84.2519 551.18C83.8583 551.076 83.5475 550.911 83.3128 550.69C83.078 550.469 82.9606 550.172 82.9606 549.799C82.9606 549.529 83.0434 549.281 83.2023 549.06C83.3611 548.839 83.5752 548.666 83.8445 548.542C84.1138 548.418 84.4107 548.355 84.7284 548.355C85.0668 548.355 85.3637 548.418 85.6192 548.535C85.8747 548.652 86.0819 548.818 86.2407 549.032C86.3995 549.246 86.5031 549.502 86.5515 549.792H85.8264C85.7573 549.502 85.633 549.288 85.4466 549.15C85.2601 549.011 85.0253 548.942 84.7422 548.942C84.5488 548.942 84.3693 548.977 84.2036 549.046C84.0378 549.115 83.9066 549.212 83.81 549.336C83.7133 549.46 83.6649 549.598 83.6649 549.757C83.6649 549.916 83.6995 550.047 83.7685 550.151C83.8376 550.254 83.9412 550.337 84.0862 550.4C84.2312 550.462 84.4315 550.531 84.687 550.6L85.2946 550.759C85.6261 550.848 85.8954 550.952 86.0957 551.069C86.296 551.187 86.4479 551.332 86.5446 551.511C86.6412 551.691 86.6896 551.912 86.6896 552.181C86.6896 552.492 86.6136 552.768 86.4548 553.01C86.296 553.252 86.075 553.438 85.7918 553.576C85.5087 553.714 85.1842 553.783 84.8182 553.783C84.4591 553.783 84.1414 553.714 83.8583 553.583Z" fill="#298DFF"/>
<path d="M358.736 553.188H360.221V550.509H358.95V549.998H360.897V553.188H362.382V553.699H358.736V553.188ZM360.041 548.451H360.897V549.307H360.041V548.451Z" fill="#298DFF"/>
<path d="M457.011 581.844H458.212L458.931 585.87L459.649 581.844H460.85V587.092H460.25V581.885L459.531 585.911H458.33L457.612 581.885V587.092H457.011V581.844Z" fill="#298DFF"/>
<path d="M217.021 627.913L217.719 627.92V628.666C217.808 628.424 217.946 628.224 218.133 628.072C218.319 627.92 218.554 627.844 218.837 627.844C219.1 627.844 219.328 627.906 219.514 628.037C219.7 628.168 219.845 628.341 219.942 628.562C220.039 628.783 220.087 629.032 220.087 629.315V629.328V631.621H219.41V629.432V629.418C219.41 629.052 219.334 628.783 219.183 628.603C219.031 628.424 218.823 628.334 218.554 628.334C218.285 628.334 218.078 628.424 217.926 628.603C217.774 628.783 217.698 629.059 217.698 629.425V631.614H217.021V627.913Z" fill="#298DFF"/>
</svg>
