<svg width="532" height="666" viewBox="0 0 532 666" fill="none" xmlns="http://www.w3.org/2000/svg">
<path d="M239.01 36.4258H239.742L237.429 41.674H236.697L239.01 36.4258Z" fill="#298DFF"/>
<path d="M234.037 36.4258H234.769L232.456 41.674H231.724L234.037 36.4258Z" fill="#298DFF"/>
<path d="M342.952 97.1624H342.945C342.683 97.0036 342.483 96.7757 342.338 96.4856C342.193 96.1956 342.124 95.8572 342.124 95.4774C342.124 95.0976 342.193 94.7593 342.338 94.4692C342.483 94.1792 342.69 93.9513 342.952 93.7925C343.215 93.6336 343.525 93.5508 343.878 93.5508C344.23 93.5508 344.541 93.6336 344.803 93.7925C345.065 93.9513 345.266 94.1792 345.411 94.4692C345.556 94.7593 345.625 95.0976 345.625 95.4774C345.625 95.8572 345.556 96.1956 345.411 96.4856C345.266 96.7757 345.065 97.0036 344.803 97.1624C344.541 97.3212 344.23 97.4041 343.878 97.4041C343.525 97.4041 343.215 97.3212 342.952 97.1624ZM342.932 96.237L342.925 96.2647C343.008 96.4787 343.132 96.6445 343.291 96.7619C343.45 96.8793 343.643 96.9345 343.871 96.9345C344.099 96.9345 344.292 96.8724 344.451 96.755C344.61 96.6376 344.727 96.4718 344.81 96.2578C344.893 96.0437 344.934 95.7882 344.934 95.4981C344.934 95.2081 344.893 94.9526 344.81 94.7385C344.727 94.5245 344.61 94.3587 344.451 94.2413C344.292 94.1239 344.099 94.0618 343.871 94.0618C343.643 94.0618 343.45 94.117 343.291 94.2344C343.132 94.3518 343.014 94.5176 342.932 94.7316C342.849 94.9457 342.807 95.1943 342.807 95.4843C342.807 95.7744 342.849 96.023 342.932 96.237Z" fill="#298DFF"/>
<path d="M147.337 136.604H148.539L149.257 140.629L149.975 136.604H151.177V141.852H150.576V136.645L149.858 140.671H148.656L147.938 136.645V141.852H147.337V136.604Z" fill="#298DFF"/>
<path d="M381.083 214.52H382.284L383.002 218.545L383.721 214.52H384.922V219.768H384.321V214.561L383.603 218.587H382.402L381.683 214.561V219.768H381.083V214.52Z" fill="#298DFF"/>
<path d="M173.926 230.388H175.411V227.708H174.14V227.197H176.088V230.388H177.573V230.899H173.926V230.388ZM175.232 225.65H176.088V226.507H175.232V225.65Z" fill="#298DFF"/>
<path d="M479.318 264.181L479.305 264.174C479.118 264.05 478.98 263.877 478.883 263.656C478.787 263.435 478.738 263.179 478.738 262.896V262.882V260.59H479.415V262.779V262.793C479.415 263.159 479.491 263.428 479.636 263.608C479.781 263.787 479.988 263.877 480.258 263.877C480.527 263.877 480.734 263.787 480.879 263.608C481.024 263.428 481.093 263.152 481.093 262.786V260.597H481.77V264.298H481.093V263.559C481.01 263.794 480.872 263.987 480.686 264.139C480.499 264.291 480.265 264.367 479.988 264.367C479.726 264.367 479.505 264.305 479.318 264.181Z" fill="#298DFF"/>
<path d="M98.7643 270.174H99.9658L100.684 274.2L101.402 270.174H102.604V275.422H102.003V270.215L101.285 274.241H100.083L99.3651 270.215V275.422H98.7643V270.174Z" fill="#298DFF"/>
<path d="M22.1676 330.902L22.14 330.916C21.8845 330.751 21.6911 330.523 21.553 330.233C21.4149 329.943 21.3458 329.611 21.3458 329.238C21.3458 328.858 21.4149 328.527 21.553 328.237C21.6911 327.947 21.8914 327.719 22.1469 327.553C22.4024 327.388 22.7062 327.305 23.0584 327.305C23.3968 327.305 23.6937 327.381 23.9492 327.533C24.2047 327.684 24.405 327.905 24.55 328.189C24.695 328.472 24.7641 328.796 24.7641 329.169C24.7641 329.218 24.7572 329.3 24.7503 329.418H22.0364C22.064 329.811 22.1676 330.115 22.3471 330.329C22.5267 330.543 22.7684 330.647 23.0653 330.647C23.3139 330.647 23.5142 330.592 23.6661 330.481C23.818 330.371 23.9285 330.205 23.9976 329.991H24.6881C24.5845 330.378 24.3981 330.668 24.1219 330.861C23.8456 331.054 23.5004 331.151 23.0791 331.151C22.7269 331.151 22.4231 331.068 22.1676 330.902ZM24.0666 328.927L24.0597 328.941C24.0459 328.727 23.9976 328.534 23.9078 328.361C23.818 328.189 23.7006 328.057 23.5556 327.961C23.4106 327.864 23.2379 327.816 23.0446 327.816C22.7615 327.816 22.5336 327.912 22.3609 328.099C22.1883 328.285 22.0778 328.561 22.0364 328.927H24.0666Z" fill="#298DFF"/>
<path d="M481.429 338.507L482.126 338.513V339.259C482.216 339.018 482.354 338.817 482.541 338.665C482.727 338.513 482.962 338.438 483.245 338.438C483.507 338.438 483.735 338.5 483.922 338.631C484.108 338.762 484.253 338.935 484.35 339.156C484.447 339.377 484.495 339.625 484.495 339.908V339.922V342.215H483.818V340.026V340.012C483.818 339.646 483.742 339.377 483.59 339.197C483.438 339.018 483.231 338.928 482.962 338.928C482.693 338.928 482.485 339.018 482.333 339.197C482.182 339.377 482.106 339.653 482.106 340.019V342.208H481.429V338.507Z" fill="#298DFF"/>
<path d="M477.015 342.041H477.008C476.746 341.882 476.545 341.655 476.4 341.365C476.255 341.075 476.186 340.736 476.186 340.356C476.186 339.977 476.255 339.638 476.4 339.348C476.545 339.058 476.752 338.83 477.015 338.671C477.277 338.513 477.588 338.43 477.94 338.43C478.292 338.43 478.603 338.513 478.866 338.671C479.128 338.83 479.328 339.058 479.473 339.348C479.618 339.638 479.687 339.977 479.687 340.356C479.687 340.736 479.618 341.075 479.473 341.365C479.328 341.655 479.128 341.882 478.866 342.041C478.603 342.2 478.292 342.283 477.94 342.283C477.588 342.283 477.277 342.2 477.015 342.041ZM476.994 341.116L476.987 341.144C477.07 341.358 477.194 341.523 477.353 341.641C477.512 341.758 477.705 341.813 477.933 341.813C478.161 341.813 478.355 341.751 478.513 341.634C478.672 341.516 478.79 341.351 478.872 341.137C478.955 340.923 478.997 340.667 478.997 340.377C478.997 340.087 478.955 339.832 478.872 339.617C478.79 339.403 478.672 339.238 478.513 339.12C478.355 339.003 478.161 338.941 477.933 338.941C477.705 338.941 477.512 338.996 477.353 339.113C477.194 339.231 477.077 339.396 476.994 339.611C476.911 339.825 476.87 340.073 476.87 340.363C476.87 340.653 476.911 340.902 476.994 341.116Z" fill="#298DFF"/>
<path d="M227.879 348.09H228.611L226.298 353.338H225.566L227.879 348.09Z" fill="#298DFF"/>
<path d="M222.906 348.09H223.638L221.324 353.338H220.592L222.906 348.09Z" fill="#298DFF"/>
<path d="M43.7134 414.875H44.4454L42.132 420.123H41.4L43.7134 414.875Z" fill="#298DFF"/>
<path d="M38.7402 414.875H39.4722L37.1589 420.123H36.4269L38.7402 414.875Z" fill="#298DFF"/>
<path d="M311.262 426.004H312.463L313.182 430.03L313.9 426.004H315.101V431.252H314.501V426.045L313.782 430.071H312.581L311.863 426.045V431.252H311.262V426.004Z" fill="#298DFF"/>
<path d="M499.225 453.342L499.197 453.356C498.942 453.19 498.748 452.962 498.61 452.672C498.472 452.382 498.403 452.051 498.403 451.678C498.403 451.298 498.472 450.966 498.61 450.676C498.748 450.386 498.948 450.158 499.204 449.993C499.46 449.827 499.763 449.744 500.116 449.744C500.454 449.744 500.751 449.82 501.006 449.972C501.262 450.124 501.462 450.345 501.607 450.628C501.752 450.911 501.821 451.236 501.821 451.609C501.821 451.657 501.814 451.74 501.807 451.857H499.094C499.121 452.251 499.225 452.555 499.404 452.769C499.584 452.983 499.825 453.086 500.122 453.086C500.371 453.086 500.571 453.031 500.723 452.921C500.875 452.81 500.986 452.644 501.055 452.43H501.745C501.642 452.817 501.455 453.107 501.179 453.301C500.903 453.494 500.557 453.591 500.136 453.591C499.784 453.591 499.48 453.508 499.225 453.342ZM501.124 451.367L501.117 451.381C501.103 451.167 501.055 450.973 500.965 450.801C500.875 450.628 500.758 450.497 500.613 450.4C500.468 450.303 500.295 450.255 500.102 450.255C499.819 450.255 499.591 450.352 499.418 450.538C499.245 450.725 499.135 451.001 499.094 451.367H501.124Z" fill="#298DFF"/>
<path d="M465.514 475.659L465.486 475.618C465.203 475.487 464.975 475.293 464.802 475.045C464.63 474.796 464.519 474.499 464.471 474.161H465.196C465.237 474.513 465.369 474.775 465.59 474.955C465.811 475.134 466.101 475.224 466.453 475.224C466.694 475.224 466.902 475.183 467.081 475.107C467.261 475.031 467.399 474.92 467.489 474.782C467.578 474.644 467.627 474.478 467.627 474.292C467.627 474.105 467.585 473.96 467.509 473.857C467.433 473.753 467.323 473.67 467.178 473.615C467.033 473.56 466.812 473.491 466.515 473.415L465.907 473.256C465.514 473.152 465.203 472.987 464.968 472.766C464.733 472.545 464.616 472.248 464.616 471.875C464.616 471.606 464.699 471.357 464.858 471.136C465.016 470.915 465.23 470.742 465.5 470.618C465.769 470.494 466.066 470.432 466.384 470.432C466.722 470.432 467.019 470.494 467.274 470.611C467.53 470.729 467.737 470.894 467.896 471.108C468.055 471.322 468.158 471.578 468.207 471.868H467.482C467.413 471.578 467.288 471.364 467.102 471.226C466.915 471.088 466.681 471.019 466.397 471.019C466.204 471.019 466.025 471.053 465.859 471.122C465.693 471.191 465.562 471.288 465.465 471.412C465.369 471.537 465.32 471.675 465.32 471.833C465.32 471.992 465.355 472.124 465.424 472.227C465.493 472.331 465.596 472.414 465.741 472.476C465.886 472.538 466.087 472.607 466.342 472.676L466.95 472.835C467.281 472.925 467.551 473.028 467.751 473.146C467.951 473.263 468.103 473.408 468.2 473.587C468.297 473.767 468.345 473.988 468.345 474.257C468.345 474.568 468.269 474.844 468.11 475.086C467.951 475.328 467.73 475.514 467.447 475.652C467.164 475.79 466.839 475.859 466.473 475.859C466.114 475.859 465.797 475.79 465.514 475.659Z" fill="#298DFF"/>
<path d="M35.8527 516.598H36.5432L37.6895 520.265L38.829 516.598H39.5195L38.3456 520.299H37.0266L35.8527 516.598Z" fill="#298DFF"/>
<path d="M373.631 520.183L373.603 520.141C373.32 520.01 373.092 519.817 372.919 519.568C372.747 519.319 372.636 519.022 372.588 518.684H373.313C373.355 519.036 373.486 519.299 373.707 519.478C373.928 519.658 374.218 519.748 374.57 519.748C374.812 519.748 375.019 519.706 375.198 519.63C375.378 519.554 375.516 519.444 375.606 519.306C375.696 519.167 375.744 519.002 375.744 518.815C375.744 518.629 375.702 518.484 375.626 518.38C375.55 518.277 375.44 518.194 375.295 518.139C375.15 518.083 374.929 518.014 374.632 517.938L374.024 517.779C373.631 517.676 373.32 517.51 373.085 517.289C372.85 517.068 372.733 516.771 372.733 516.398C372.733 516.129 372.816 515.88 372.975 515.659C373.134 515.438 373.348 515.266 373.617 515.142C373.886 515.017 374.183 514.955 374.501 514.955C374.839 514.955 375.136 515.017 375.392 515.135C375.647 515.252 375.854 515.418 376.013 515.632C376.172 515.846 376.276 516.101 376.324 516.391H375.599C375.53 516.101 375.405 515.887 375.219 515.749C375.033 515.611 374.798 515.542 374.515 515.542C374.321 515.542 374.142 515.577 373.976 515.646C373.81 515.715 373.679 515.811 373.582 515.936C373.486 516.06 373.437 516.198 373.437 516.357C373.437 516.516 373.472 516.647 373.541 516.751C373.61 516.854 373.714 516.937 373.859 516.999C374.004 517.061 374.204 517.13 374.459 517.199L375.067 517.358C375.399 517.448 375.668 517.552 375.868 517.669C376.068 517.786 376.22 517.931 376.317 518.111C376.414 518.29 376.462 518.511 376.462 518.781C376.462 519.092 376.386 519.368 376.227 519.609C376.068 519.851 375.847 520.038 375.564 520.176C375.281 520.314 374.957 520.383 374.591 520.383C374.232 520.383 373.914 520.314 373.631 520.183Z" fill="#298DFF"/>
<path d="M414.027 564.658H414.02C413.757 564.5 413.557 564.272 413.412 563.982C413.267 563.692 413.198 563.353 413.198 562.974C413.198 562.594 413.267 562.255 413.412 561.965C413.557 561.675 413.764 561.447 414.027 561.289C414.289 561.13 414.6 561.047 414.952 561.047C415.304 561.047 415.615 561.13 415.877 561.289C416.14 561.447 416.34 561.675 416.485 561.965C416.63 562.255 416.699 562.594 416.699 562.974C416.699 563.353 416.63 563.692 416.485 563.982C416.34 564.272 416.14 564.5 415.877 564.658C415.615 564.817 415.304 564.9 414.952 564.9C414.6 564.9 414.289 564.817 414.027 564.658ZM414.006 563.733L413.999 563.761C414.082 563.975 414.206 564.141 414.365 564.258C414.524 564.375 414.717 564.431 414.945 564.431C415.173 564.431 415.366 564.368 415.525 564.251C415.684 564.134 415.801 563.968 415.884 563.754C415.967 563.54 416.008 563.284 416.008 562.994C416.008 562.704 415.967 562.449 415.884 562.235C415.801 562.021 415.684 561.855 415.525 561.737C415.366 561.62 415.173 561.558 414.945 561.558C414.717 561.558 414.524 561.613 414.365 561.731C414.206 561.848 414.089 562.014 414.006 562.228C413.923 562.442 413.882 562.69 413.882 562.98C413.882 563.27 413.923 563.519 414.006 563.733Z" fill="#298DFF"/>
<path d="M84.8639 598.049H84.857C84.5946 597.89 84.3944 597.662 84.2494 597.372C84.1043 597.082 84.0353 596.744 84.0353 596.364C84.0353 595.984 84.1043 595.646 84.2494 595.356C84.3944 595.066 84.6015 594.838 84.8639 594.679C85.1264 594.52 85.4371 594.438 85.7893 594.438C86.1415 594.438 86.4522 594.52 86.7146 594.679C86.977 594.838 87.1773 595.066 87.3223 595.356C87.4673 595.646 87.5364 595.984 87.5364 596.364C87.5364 596.744 87.4673 597.082 87.3223 597.372C87.1773 597.662 86.977 597.89 86.7146 598.049C86.4522 598.208 86.1415 598.291 85.7893 598.291C85.4371 598.291 85.1264 598.208 84.8639 598.049ZM84.8432 597.124L84.8363 597.151C84.9192 597.365 85.0435 597.531 85.2023 597.649C85.3611 597.766 85.5545 597.821 85.7824 597.821C86.0103 597.821 86.2036 597.759 86.3625 597.642C86.5213 597.524 86.6387 597.359 86.7215 597.144C86.8044 596.93 86.8458 596.675 86.8458 596.385C86.8458 596.095 86.8044 595.839 86.7215 595.625C86.6387 595.411 86.5213 595.245 86.3625 595.128C86.2036 595.011 86.0103 594.949 85.7824 594.949C85.5545 594.949 85.3611 595.004 85.2023 595.121C85.0435 595.239 84.9261 595.404 84.8432 595.618C84.7604 595.832 84.7189 596.081 84.7189 596.371C84.7189 596.661 84.7604 596.91 84.8432 597.124Z" fill="#298DFF"/>
<path d="M263.704 626.359H264.906L265.624 630.385L266.342 626.359H267.544V631.608H266.943V626.401L266.225 630.427H265.023L264.305 626.401V631.608H263.704V626.359Z" fill="#298DFF"/>
<path d="M306.679 664.834H306.672C306.41 664.675 306.21 664.448 306.065 664.158C305.92 663.867 305.851 663.529 305.851 663.149C305.851 662.77 305.92 662.431 306.065 662.141C306.21 661.851 306.417 661.623 306.679 661.464C306.942 661.306 307.253 661.223 307.605 661.223C307.957 661.223 308.268 661.306 308.53 661.464C308.792 661.623 308.993 661.851 309.138 662.141C309.283 662.431 309.352 662.77 309.352 663.149C309.352 663.529 309.283 663.867 309.138 664.158C308.993 664.448 308.792 664.675 308.53 664.834C308.268 664.993 307.957 665.076 307.605 665.076C307.253 665.076 306.942 664.993 306.679 664.834ZM306.659 663.909L306.652 663.937C306.735 664.151 306.859 664.316 307.018 664.434C307.177 664.551 307.37 664.606 307.598 664.606C307.826 664.606 308.019 664.544 308.178 664.427C308.337 664.309 308.454 664.144 308.537 663.93C308.62 663.716 308.661 663.46 308.661 663.17C308.661 662.88 308.62 662.624 308.537 662.41C308.454 662.196 308.337 662.031 308.178 661.913C308.019 661.796 307.826 661.734 307.598 661.734C307.37 661.734 307.177 661.789 307.018 661.906C306.859 662.024 306.742 662.189 306.659 662.404C306.576 662.618 306.534 662.866 306.534 663.156C306.534 663.446 306.576 663.695 306.659 663.909Z" fill="#298DFF"/>
</svg>
