<svg width="532" height="666" viewBox="0 0 532 666" fill="none" xmlns="http://www.w3.org/2000/svg">
<path d="M172.529 119.43H172.522C172.259 119.271 172.059 119.043 171.914 118.753C171.769 118.463 171.7 118.125 171.7 117.745C171.7 117.365 171.769 117.027 171.914 116.737C172.059 116.447 172.266 116.219 172.529 116.06C172.791 115.901 173.102 115.818 173.454 115.818C173.806 115.818 174.117 115.901 174.379 116.06C174.642 116.219 174.842 116.447 174.987 116.737C175.132 117.027 175.201 117.365 175.201 117.745C175.201 118.125 175.132 118.463 174.987 118.753C174.842 119.043 174.642 119.271 174.379 119.43C174.117 119.589 173.806 119.672 173.454 119.672C173.102 119.672 172.791 119.589 172.529 119.43ZM172.508 118.505L172.501 118.532C172.584 118.746 172.708 118.912 172.867 119.029C173.026 119.147 173.219 119.202 173.447 119.202C173.675 119.202 173.868 119.14 174.027 119.023C174.186 118.905 174.303 118.739 174.386 118.525C174.469 118.311 174.511 118.056 174.511 117.766C174.511 117.476 174.469 117.22 174.386 117.006C174.303 116.792 174.186 116.626 174.027 116.509C173.868 116.392 173.675 116.329 173.447 116.329C173.219 116.329 173.026 116.385 172.867 116.502C172.708 116.619 172.591 116.785 172.508 116.999C172.425 117.213 172.384 117.462 172.384 117.752C172.384 118.042 172.425 118.291 172.508 118.505Z" fill="#298DFF"/>
<path d="M79.134 247.918H79.866L77.5527 253.166H76.8207L79.134 247.918Z" fill="#298DFF"/>
<path d="M434.332 271.727L435.029 271.734V272.48C435.119 272.238 435.257 272.038 435.444 271.886C435.63 271.734 435.865 271.658 436.148 271.658C436.41 271.658 436.638 271.72 436.825 271.852C437.011 271.983 437.156 272.155 437.253 272.376C437.35 272.597 437.398 272.846 437.398 273.129V273.143V275.436H436.721V273.246V273.233C436.721 272.867 436.645 272.597 436.493 272.418C436.341 272.238 436.134 272.148 435.865 272.148C435.596 272.148 435.388 272.238 435.236 272.418C435.084 272.597 435.009 272.874 435.009 273.24V275.429H434.332V271.727Z" fill="#298DFF"/>
<path d="M218.017 316.25H218.708L219.854 319.917L220.993 316.25H221.684L220.51 319.951H219.191L218.017 316.25Z" fill="#298DFF"/>
<path d="M15.7015 349.643H16.3921L17.5384 353.309L18.6778 349.643H19.3684L18.1944 353.344H16.8755L15.7015 349.643Z" fill="#298DFF"/>
<path d="M489.03 370.357H489.762L487.448 375.606H486.716L489.03 370.357Z" fill="#298DFF"/>
<path d="M284.251 408.487H285.736V405.808H284.466V405.297H286.413V408.487H287.898V408.998H284.251V408.487ZM285.557 403.75H286.413V404.606H285.557V403.75Z" fill="#298DFF"/>
<path d="M411.403 497.879H411.396C411.134 497.72 410.933 497.492 410.788 497.202C410.643 496.912 410.574 496.574 410.574 496.194C410.574 495.814 410.643 495.476 410.788 495.186C410.933 494.896 411.14 494.668 411.403 494.509C411.665 494.35 411.976 494.268 412.328 494.268C412.68 494.268 412.991 494.35 413.254 494.509C413.516 494.668 413.716 494.896 413.861 495.186C414.006 495.476 414.075 495.814 414.075 496.194C414.075 496.574 414.006 496.912 413.861 497.202C413.716 497.492 413.516 497.72 413.254 497.879C412.991 498.038 412.68 498.121 412.328 498.121C411.976 498.121 411.665 498.038 411.403 497.879ZM411.382 496.954L411.375 496.981C411.458 497.196 411.582 497.361 411.741 497.479C411.9 497.596 412.093 497.651 412.321 497.651C412.549 497.651 412.743 497.589 412.901 497.472C413.06 497.354 413.178 497.189 413.26 496.975C413.343 496.76 413.385 496.505 413.385 496.215C413.385 495.925 413.343 495.669 413.26 495.455C413.178 495.241 413.06 495.076 412.901 494.958C412.743 494.841 412.549 494.779 412.321 494.779C412.093 494.779 411.9 494.834 411.741 494.951C411.582 495.069 411.465 495.234 411.382 495.448C411.299 495.663 411.258 495.911 411.258 496.201C411.258 496.491 411.299 496.74 411.382 496.954Z" fill="#298DFF"/>
<path d="M71.9113 509.01H71.9044C71.642 508.851 71.4417 508.623 71.2967 508.333C71.1517 508.043 71.0826 507.705 71.0826 507.325C71.0826 506.945 71.1517 506.607 71.2967 506.317C71.4417 506.027 71.6489 505.799 71.9113 505.64C72.1737 505.481 72.4845 505.398 72.8367 505.398C73.1888 505.398 73.4996 505.481 73.762 505.64C74.0244 505.799 74.2247 506.027 74.3697 506.317C74.5147 506.607 74.5838 506.945 74.5838 507.325C74.5838 507.705 74.5147 508.043 74.3697 508.333C74.2247 508.623 74.0244 508.851 73.762 509.01C73.4996 509.169 73.1888 509.252 72.8367 509.252C72.4845 509.252 72.1737 509.169 71.9113 509.01ZM71.8906 508.085L71.8837 508.112C71.9666 508.326 72.0909 508.492 72.2497 508.61C72.4085 508.727 72.6019 508.782 72.8297 508.782C73.0576 508.782 73.251 508.72 73.4098 508.603C73.5686 508.485 73.686 508.319 73.7689 508.105C73.8518 507.891 73.8932 507.636 73.8932 507.346C73.8932 507.056 73.8518 506.8 73.7689 506.586C73.686 506.372 73.5686 506.206 73.4098 506.089C73.251 505.972 73.0576 505.909 72.8297 505.909C72.6019 505.909 72.4085 505.965 72.2497 506.082C72.0909 506.199 71.9735 506.365 71.8906 506.579C71.8077 506.793 71.7663 507.042 71.7663 507.332C71.7663 507.622 71.8077 507.871 71.8906 508.085Z" fill="#298DFF"/>
<path d="M486.631 542.056H488.116V539.376H486.845V538.865H488.793V542.056H490.277V542.567H486.631V542.056ZM487.936 537.318H488.793V538.175H487.936V537.318Z" fill="#298DFF"/>
<path d="M202.986 615.234H204.187L204.905 619.26L205.624 615.234H206.825V620.483H206.224V615.276L205.506 619.302H204.305L203.586 615.276V620.483H202.986V615.234Z" fill="#298DFF"/>
<path d="M353.217 653.709H353.21C352.948 653.55 352.748 653.323 352.603 653.033C352.458 652.742 352.389 652.404 352.389 652.024C352.389 651.645 352.458 651.306 352.603 651.016C352.748 650.726 352.955 650.498 353.217 650.339C353.48 650.181 353.791 650.098 354.143 650.098C354.495 650.098 354.806 650.181 355.068 650.339C355.33 650.498 355.531 650.726 355.676 651.016C355.821 651.306 355.89 651.645 355.89 652.024C355.89 652.404 355.821 652.742 355.676 653.033C355.531 653.323 355.33 653.55 355.068 653.709C354.806 653.868 354.495 653.951 354.143 653.951C353.791 653.951 353.48 653.868 353.217 653.709ZM353.197 652.784L353.19 652.812C353.273 653.026 353.397 653.191 353.556 653.309C353.715 653.426 353.908 653.481 354.136 653.481C354.364 653.481 354.557 653.419 354.716 653.302C354.875 653.184 354.992 653.019 355.075 652.805C355.158 652.591 355.199 652.335 355.199 652.045C355.199 651.755 355.158 651.499 355.075 651.285C354.992 651.071 354.875 650.906 354.716 650.788C354.557 650.671 354.364 650.609 354.136 650.609C353.908 650.609 353.715 650.664 353.556 650.781C353.397 650.899 353.279 651.064 353.197 651.279C353.114 651.493 353.072 651.741 353.072 652.031C353.072 652.321 353.114 652.57 353.197 652.784Z" fill="#298DFF"/>
<path d="M417.059 186.215H417.052C416.79 186.056 416.59 185.828 416.445 185.538C416.3 185.248 416.231 184.91 416.231 184.53C416.231 184.15 416.3 183.812 416.445 183.522C416.59 183.232 416.797 183.004 417.059 182.845C417.322 182.686 417.633 182.604 417.985 182.604C418.337 182.604 418.648 182.686 418.91 182.845C419.172 183.004 419.373 183.232 419.518 183.522C419.663 183.812 419.732 184.15 419.732 184.53C419.732 184.91 419.663 185.248 419.518 185.538C419.373 185.828 419.172 186.056 418.91 186.215C418.648 186.374 418.337 186.457 417.985 186.457C417.633 186.457 417.322 186.374 417.059 186.215ZM417.039 185.29L417.032 185.317C417.115 185.531 417.239 185.697 417.398 185.815C417.557 185.932 417.75 185.987 417.978 185.987C418.206 185.987 418.399 185.925 418.558 185.808C418.717 185.69 418.834 185.525 418.917 185.31C419 185.096 419.041 184.841 419.041 184.551C419.041 184.261 419 184.005 418.917 183.791C418.834 183.577 418.717 183.411 418.558 183.294C418.399 183.177 418.206 183.115 417.978 183.115C417.75 183.115 417.557 183.17 417.398 183.287C417.239 183.405 417.122 183.57 417.039 183.784C416.956 183.998 416.914 184.247 416.914 184.537C416.914 184.827 416.956 185.076 417.039 185.29Z" fill="#298DFF"/>
<path d="M299.432 63.4306H300.917V60.7512H299.646V60.2402H301.593V63.4306H303.078V63.9416H299.432V63.4306ZM300.737 58.6934H301.593V59.5496H300.737V58.6934Z" fill="#298DFF"/>
</svg>
