<svg xmlns="http://www.w3.org/2000/svg" width="532" height="666" viewBox="0 0 532 666" fill="none">
  <defs>
    <clipPath id="r0"><rect x="260.70" y="0" width="10.82" height="8.45"/></clipPath>
    <clipPath id="r1"><rect x="245.41" y="10.45" width="41.19" height="8.63"/></clipPath>
    <clipPath id="r2"><rect x="237.64" y="22.59" width="58.68" height="8.63"/></clipPath>
    <clipPath id="r3"><rect x="230.34" y="34.73" width="72.19" height="8.63"/></clipPath>
    <clipPath id="r4"><rect x="217.79" y="45.86" width="98.33" height="8.63"/></clipPath>
    <clipPath id="r5"><rect x="210.90" y="56.99" width="109.18" height="8.63"/></clipPath>
    <clipPath id="r6"><rect x="200.59" y="68.12" width="133.30" height="8.63"/></clipPath>
    <clipPath id="r7"><rect x="191.09" y="79.26" width="150.29" height="8.63"/></clipPath>
    <clipPath id="r8"><rect x="181.79" y="90.38" width="71.93" height="8.63"/></clipPath>
    <clipPath id="r9"><rect x="283.45" y="90.38" width="68.66" height="8.63"/></clipPath>
    <clipPath id="r10"><rect x="171.71" y="101.52" width="73.58" height="8.63"/></clipPath>
    <clipPath id="r11"><rect x="287" y="101.52" width="72.19" height="8.63"/></clipPath>
    <clipPath id="r12"><rect x="165.18" y="112.65" width="71.93" height="8.63"/></clipPath>
    <clipPath id="r13"><rect x="302.18" y="112.65" width="66.75" height="8.63"/></clipPath>
    <clipPath id="r14"><rect x="154.23" y="123.78" width="73.39" height="8.63"/></clipPath>
    <clipPath id="r15"><rect x="306.02" y="123.78" width="73.39" height="8.63"/></clipPath>
    <clipPath id="r16"><rect x="145.95" y="134.91" width="71.93" height="8.63"/></clipPath>
    <clipPath id="r17"><rect x="314.57" y="134.91" width="73.54" height="8.63"/></clipPath>
    <clipPath id="r18"><rect x="150.44" y="146.04" width="44.07" height="8.63"/></clipPath>
    <clipPath id="r19"><rect x="381.43" y="146.04" width="16.64" height="8.63"/></clipPath>
    <clipPath id="r20"><rect x="325.88" y="146.14" width="22.43" height="8.45"/></clipPath>
    <clipPath id="r21"><rect x="135.71" y="147.61" width="11.11" height="7.80"/></clipPath>
    <clipPath id="r22"><rect x="193.01" y="147.61" width="16.29" height="7.80"/></clipPath>
    <clipPath id="r23"><rect x="346.81" y="147.61" width="31" height="7.80"/></clipPath>
    <clipPath id="r24"><rect x="128.94" y="157.17" width="73.39" height="8.63"/></clipPath>
    <clipPath id="r25"><rect x="332.78" y="157.17" width="73.54" height="8.63"/></clipPath>
    <clipPath id="r26"><rect x="117.62" y="168.30" width="83.54" height="8.63"/></clipPath>
    <clipPath id="r27"><rect x="342.26" y="168.30" width="71.93" height="8.63"/></clipPath>
    <clipPath id="r28"><rect x="107.96" y="179.43" width="88.30" height="8.63"/></clipPath>
    <clipPath id="r29"><rect x="352.57" y="179.43" width="68.58" height="8.63"/></clipPath>
    <clipPath id="r30"><rect x="96.18" y="190.56" width="99.33" height="8.63"/></clipPath>
    <clipPath id="r31"><rect x="365.41" y="190.56" width="63.60" height="8.63"/></clipPath>
    <clipPath id="r32"><rect x="89.48" y="201.69" width="43.89" height="8.63"/></clipPath>
    <clipPath id="r33"><rect x="166.48" y="201.69" width="27.20" height="8.63"/></clipPath>
    <clipPath id="r34"><rect x="385.78" y="201.69" width="44.07" height="8.63"/></clipPath>
    <clipPath id="r35"><rect x="131.86" y="203.26" width="31" height="7.80"/></clipPath>
    <clipPath id="r36"><rect x="371.06" y="203.26" width="11.11" height="7.80"/></clipPath>
    <clipPath id="r37"><rect x="428.35" y="203.26" width="11.36" height="7.80"/></clipPath>
    <clipPath id="r38"><rect x="79.09" y="212.83" width="113.04" height="8.63"/></clipPath>
    <clipPath id="r39"><rect x="379.70" y="212.83" width="71.93" height="8.63"/></clipPath>
    <clipPath id="r40"><rect x="70.52" y="223.96" width="119.12" height="8.63"/></clipPath>
    <clipPath id="r41"><rect x="387.24" y="223.96" width="73.58" height="8.63"/></clipPath>
    <clipPath id="r42"><rect x="62.36" y="235.09" width="128.83" height="8.63"/></clipPath>
    <clipPath id="r43"><rect x="395.35" y="235.09" width="73.97" height="8.63"/></clipPath>
    <clipPath id="r44"><rect x="53.98" y="246.22" width="135.58" height="8.63"/></clipPath>
    <clipPath id="r45"><rect x="410.52" y="246.22" width="68.66" height="8.63"/></clipPath>
    <clipPath id="r46"><rect x="45.77" y="257.35" width="71.93" height="8.63"/></clipPath>
    <clipPath id="r47"><rect x="127.30" y="257.35" width="67.32" height="8.63"/></clipPath>
    <clipPath id="r48"><rect x="416.53" y="257.35" width="72.19" height="8.63"/></clipPath>
    <clipPath id="r49"><rect x="35.28" y="268.48" width="73.53" height="8.63"/></clipPath>
    <clipPath id="r50"><rect x="127.43" y="268.48" width="68.28" height="8.63"/></clipPath>
    <clipPath id="r51"><rect x="427.72" y="268.48" width="63.60" height="8.63"/></clipPath>
    <clipPath id="r52"><rect x="33.63" y="279.61" width="66.96" height="8.63"/></clipPath>
    <clipPath id="r53"><rect x="132.25" y="279.61" width="68.66" height="8.63"/></clipPath>
    <clipPath id="r54"><rect x="432.96" y="279.61" width="68.74" height="8.63"/></clipPath>
    <clipPath id="r55"><rect x="24.92" y="290.74" width="66.75" height="8.63"/></clipPath>
    <clipPath id="r56"><rect x="139.33" y="290.74" width="63.60" height="8.63"/></clipPath>
    <clipPath id="r57"><rect x="439.03" y="290.74" width="68.90" height="8.63"/></clipPath>
    <clipPath id="r58"><rect x="19.02" y="301.87" width="67.31" height="8.63"/></clipPath>
    <clipPath id="r59"><rect x="140.26" y="301.87" width="73.37" height="8.63"/></clipPath>
    <clipPath id="r60"><rect x="447.88" y="301.97" width="63.08" height="8.52"/></clipPath>
    <clipPath id="r61"><rect x="18.64" y="313" width="58.68" height="8.63"/></clipPath>
    <clipPath id="r62"><rect x="144.57" y="313" width="78.60" height="8.63"/></clipPath>
    <clipPath id="r63"><rect x="454.03" y="313" width="62.36" height="8.63"/></clipPath>
    <clipPath id="r64"><rect x="9.92" y="324.13" width="67.31" height="8.63"/></clipPath>
    <clipPath id="r65"><rect x="151.01" y="324.13" width="83.54" height="8.63"/></clipPath>
    <clipPath id="r66"><rect x="459.03" y="324.13" width="62.22" height="8.63"/></clipPath>
    <clipPath id="r67"><rect x="7.79" y="335.26" width="63.59" height="8.63"/></clipPath>
    <clipPath id="r68"><rect x="161.59" y="335.26" width="88.30" height="8.63"/></clipPath>
    <clipPath id="r69"><rect x="460.11" y="335.26" width="62.36" height="8.63"/></clipPath>
    <clipPath id="r70"><rect x="4.29" y="346.40" width="66.96" height="8.63"/></clipPath>
    <clipPath id="r71"><rect x="167.67" y="346.40" width="98.66" height="8.63"/></clipPath>
    <clipPath id="r72"><rect x="465.26" y="346.40" width="61.52" height="8.63"/></clipPath>
    <clipPath id="r73"><rect x="2.66" y="357.52" width="62.22" height="8.63"/></clipPath>
    <clipPath id="r74"><rect x="176.88" y="357.52" width="103.62" height="8.63"/></clipPath>
    <clipPath id="r75"><rect x="467.58" y="357.52" width="62.34" height="8.63"/></clipPath>
    <clipPath id="r76"><rect x="2.45" y="368.66" width="58.68" height="8.63"/></clipPath>
    <clipPath id="r77"><rect x="193.51" y="368.66" width="108.24" height="8.63"/></clipPath>
    <clipPath id="r78"><rect x="469.30" y="368.75" width="62.70" height="8.52"/></clipPath>
    <clipPath id="r79"><rect x="0" y="379.79" width="62.36" height="8.63"/></clipPath>
    <clipPath id="r80"><rect x="205.04" y="379.79" width="114.12" height="8.63"/></clipPath>
    <clipPath id="r81"><rect x="469.21" y="379.79" width="62.79" height="8.63"/></clipPath>
    <clipPath id="r82"><rect x="223.04" y="390.92" width="43.89" height="8.63"/></clipPath>
    <clipPath id="r83"><rect x="300.06" y="390.92" width="32.17" height="8.63"/></clipPath>
    <clipPath id="r84"><rect x="0" y="391.01" width="33.57" height="8.45"/></clipPath>
    <clipPath id="r85"><rect x="471.17" y="391.01" width="22.43" height="8.45"/></clipPath>
    <clipPath id="r86"><rect x="30.67" y="392.49" width="31" height="7.80"/></clipPath>
    <clipPath id="r87"><rect x="265.44" y="392.49" width="31" height="7.80"/></clipPath>
    <clipPath id="r88"><rect x="492.10" y="392.49" width="31" height="7.80"/></clipPath>
    <clipPath id="r89"><rect x="2.26" y="402.05" width="56.40" height="8.63"/></clipPath>
    <clipPath id="r90"><rect x="232.97" y="402.05" width="113.05" height="8.63"/></clipPath>
    <clipPath id="r91"><rect x="470.33" y="402.05" width="61.67" height="8.63"/></clipPath>
    <clipPath id="r92"><rect x="0" y="413.18" width="63.59" height="8.63"/></clipPath>
    <clipPath id="r93"><rect x="252.76" y="413.18" width="103.76" height="8.63"/></clipPath>
    <clipPath id="r94"><rect x="471.97" y="413.18" width="58.68" height="8.63"/></clipPath>
    <clipPath id="r95"><rect x="0.81" y="424.31" width="62.34" height="8.63"/></clipPath>
    <clipPath id="r96"><rect x="272.63" y="424.31" width="93.65" height="8.63"/></clipPath>
    <clipPath id="r97"><rect x="470.23" y="424.31" width="61.77" height="8.63"/></clipPath>
    <clipPath id="r98"><rect x="4.48" y="435.44" width="58.68" height="8.63"/></clipPath>
    <clipPath id="r99"><rect x="287.25" y="435.44" width="93.43" height="8.63"/></clipPath>
    <clipPath id="r100"><rect x="470.96" y="435.44" width="58.68" height="8.63"/></clipPath>
    <clipPath id="r101"><rect x="369.87" y="446.57" width="16.64" height="8.63"/></clipPath>
    <clipPath id="r102"><rect x="4.69" y="446.67" width="22.43" height="8.45"/></clipPath>
    <clipPath id="r103"><rect x="303.18" y="446.67" width="33.57" height="8.45"/></clipPath>
    <clipPath id="r104"><rect x="466.11" y="446.67" width="22.43" height="8.45"/></clipPath>
    <clipPath id="r105"><rect x="25.62" y="448.14" width="31" height="7.80"/></clipPath>
    <clipPath id="r106"><rect x="335.25" y="448.14" width="31" height="7.80"/></clipPath>
    <clipPath id="r107"><rect x="487.04" y="448.14" width="31" height="7.80"/></clipPath>
    <clipPath id="r108"><rect x="5.87" y="457.70" width="62.34" height="8.63"/></clipPath>
    <clipPath id="r109"><rect x="311.46" y="457.70" width="83.73" height="8.63"/></clipPath>
    <clipPath id="r110"><rect x="462.67" y="457.70" width="66.96" height="8.63"/></clipPath>
    <clipPath id="r111"><rect x="326.97" y="468.83" width="72.19" height="8.63"/></clipPath>
    <clipPath id="r112"><rect x="463.37" y="468.83" width="58.68" height="8.63"/></clipPath>
    <clipPath id="r113"><rect x="7.37" y="468.93" width="67.96" height="8.52"/></clipPath>
    <clipPath id="r114"><rect x="11.77" y="479.97" width="66.75" height="8.63"/></clipPath>
    <clipPath id="r115"><rect x="335.18" y="479.97" width="71.93" height="8.63"/></clipPath>
    <clipPath id="r116"><rect x="453.76" y="479.97" width="68.59" height="8.63"/></clipPath>
    <clipPath id="r117"><rect x="14.54" y="491.09" width="68.73" height="8.63"/></clipPath>
    <clipPath id="r118"><rect x="337.40" y="491.09" width="78.19" height="8.63"/></clipPath>
    <clipPath id="r119"><rect x="450.59" y="491.09" width="66.96" height="8.63"/></clipPath>
    <clipPath id="r120"><rect x="17.83" y="502.23" width="73.37" height="8.63"/></clipPath>
    <clipPath id="r121"><rect x="347.32" y="502.23" width="66.96" height="8.63"/></clipPath>
    <clipPath id="r122"><rect x="444.09" y="502.23" width="68.74" height="8.63"/></clipPath>
    <clipPath id="r123"><rect x="24.52" y="513.36" width="71.93" height="8.63"/></clipPath>
    <clipPath id="r124"><rect x="346.95" y="513.36" width="73.54" height="8.63"/></clipPath>
    <clipPath id="r125"><rect x="433.79" y="513.36" width="73.58" height="8.63"/></clipPath>
    <clipPath id="r126"><rect x="29.28" y="524.49" width="78.19" height="8.63"/></clipPath>
    <clipPath id="r127"><rect x="352.57" y="524.49" width="68.58" height="8.63"/></clipPath>
    <clipPath id="r128"><rect x="429.47" y="524.49" width="73.39" height="8.63"/></clipPath>
    <clipPath id="r129"><rect x="39.09" y="535.62" width="72.19" height="8.63"/></clipPath>
    <clipPath id="r130"><rect x="358.45" y="535.62" width="133.30" height="8.63"/></clipPath>
    <clipPath id="r131"><rect x="41.73" y="546.75" width="83.54" height="8.63"/></clipPath>
    <clipPath id="r132"><rect x="357.32" y="546.75" width="135.17" height="8.63"/></clipPath>
    <clipPath id="r133"><rect x="52.07" y="557.88" width="83.50" height="8.63"/></clipPath>
    <clipPath id="r134"><rect x="359.85" y="557.88" width="120.34" height="8.63"/></clipPath>
    <clipPath id="r135"><rect x="59.63" y="569.01" width="93.28" height="8.63"/></clipPath>
    <clipPath id="r136"><rect x="361.95" y="569.01" width="108.55" height="8.63"/></clipPath>
    <clipPath id="r137"><rect x="111.84" y="580.14" width="43.78" height="8.63"/></clipPath>
    <clipPath id="r138"><rect x="418.45" y="580.14" width="43.79" height="8.63"/></clipPath>
    <clipPath id="r139"><rect x="362.90" y="580.24" width="22.43" height="8.45"/></clipPath>
    <clipPath id="r140"><rect x="77.22" y="581.71" width="31" height="7.80"/></clipPath>
    <clipPath id="r141"><rect x="154.13" y="581.71" width="16.29" height="7.80"/></clipPath>
    <clipPath id="r142"><rect x="383.83" y="581.71" width="31" height="7.80"/></clipPath>
    <clipPath id="r143"><rect x="82.66" y="591.27" width="119.12" height="8.63"/></clipPath>
    <clipPath id="r144"><rect x="333.71" y="591.27" width="115.37" height="8.63"/></clipPath>
    <clipPath id="r145"><rect x="92.79" y="602.40" width="349" height="8.63"/></clipPath>
    <clipPath id="r146"><rect x="108.91" y="613.53" width="318.44" height="8.63"/></clipPath>
    <clipPath id="r147"><rect x="123.32" y="624.67" width="287.84" height="8.63"/></clipPath>
    <clipPath id="r148"><rect x="184.70" y="635.80" width="43.78" height="8.63"/></clipPath>
    <clipPath id="r149"><rect x="261.60" y="635.80" width="43.79" height="8.63"/></clipPath>
    <clipPath id="r150"><rect x="338.50" y="635.80" width="43.78" height="8.63"/></clipPath>
    <clipPath id="r151"><rect x="150.08" y="637.37" width="31" height="7.80"/></clipPath>
    <clipPath id="r152"><rect x="226.98" y="637.37" width="31" height="7.80"/></clipPath>
    <clipPath id="r153"><rect x="303.89" y="637.37" width="31" height="7.80"/></clipPath>
    <clipPath id="r154"><rect x="172.26" y="646.93" width="189.95" height="8.63"/></clipPath>
    <clipPath id="r155"><rect x="202.62" y="658.06" width="133.30" height="8.63"/></clipPath>
    <filter id="soften" x="-10%" y="-10%" width="120%" height="120%"><feGaussianBlur stdDeviation="0.18"/></filter>
  </defs>
  <g fill="#4B515B" opacity="0.58" filter="url(#soften)" font-family="TWK Everett Mono, IBM Plex Mono, Consolas, monospace" font-size="7.35" font-weight="700" letter-spacing="0.78">
    <text clip-path="url(#r0)" x="260.70" y="6.35">//Sinpol Design   //Sinpol Design   //Sinpol Design   //Sinpol Design</text>
    <text clip-path="url(#r1)" x="245.41" y="16.97">//Sinpol Design   //Sinpol Design   //Sinpol Design   //Sinpol Design</text>
    <text clip-path="url(#r2)" x="237.64" y="29.12">//Sinpol Design   //Sinpol Design   //Sinpol Design   //Sinpol Design</text>
    <text clip-path="url(#r3)" x="230.34" y="41.26">//Sinpol Design   //Sinpol Design   //Sinpol Design   //Sinpol Design</text>
    <text clip-path="url(#r4)" x="217.79" y="52.39">//Sinpol Design   //Sinpol Design   //Sinpol Design   //Sinpol Design</text>
    <text clip-path="url(#r5)" x="210.90" y="63.52">//Sinpol Design   //Sinpol Design   //Sinpol Design   //Sinpol Design</text>
    <text clip-path="url(#r6)" x="200.59" y="74.65">//Sinpol Design   //Sinpol Design   //Sinpol Design   //Sinpol Design</text>
    <text clip-path="url(#r7)" x="191.09" y="85.78">//Sinpol Design   //Sinpol Design   //Sinpol Design   //Sinpol Design</text>
    <text clip-path="url(#r8)" x="181.79" y="96.91">//Sinpol Design   //Sinpol Design   //Sinpol Design   //Sinpol Design</text>
    <text clip-path="url(#r9)" x="283.45" y="96.91">//Sinpol Design   //Sinpol Design   //Sinpol Design   //Sinpol Design</text>
    <text clip-path="url(#r10)" x="171.71" y="108.05">//Sinpol Design   //Sinpol Design   //Sinpol Design   //Sinpol Design</text>
    <text clip-path="url(#r11)" x="287" y="108.05">//Sinpol Design   //Sinpol Design   //Sinpol Design   //Sinpol Design</text>
    <text clip-path="url(#r12)" x="165.18" y="119.17">//Sinpol Design   //Sinpol Design   //Sinpol Design   //Sinpol Design</text>
    <text clip-path="url(#r13)" x="302.18" y="119.17">//Sinpol Design   //Sinpol Design   //Sinpol Design   //Sinpol Design</text>
    <text clip-path="url(#r14)" x="154.23" y="130.31">//Sinpol Design   //Sinpol Design   //Sinpol Design   //Sinpol Design</text>
    <text clip-path="url(#r15)" x="306.02" y="130.31">//Sinpol Design   //Sinpol Design   //Sinpol Design   //Sinpol Design</text>
    <text clip-path="url(#r16)" x="145.95" y="141.44">//Sinpol Design   //Sinpol Design   //Sinpol Design   //Sinpol Design</text>
    <text clip-path="url(#r17)" x="314.57" y="141.44">//Sinpol Design   //Sinpol Design   //Sinpol Design   //Sinpol Design</text>
    <text clip-path="url(#r18)" x="150.44" y="152.57">//Sinpol Design   //Sinpol Design   //Sinpol Design   //Sinpol Design</text>
    <text clip-path="url(#r19)" x="381.43" y="152.57">//Sinpol Design   //Sinpol Design   //Sinpol Design   //Sinpol Design</text>
    <text clip-path="url(#r20)" x="325.88" y="152.49">//Sinpol Design   //Sinpol Design   //Sinpol Design   //Sinpol Design</text>
    <text clip-path="url(#r21)" x="135.71" y="153.31">//Sinpol Design   //Sinpol Design   //Sinpol Design   //Sinpol Design</text>
    <text clip-path="url(#r22)" x="193.01" y="153.31">//Sinpol Design   //Sinpol Design   //Sinpol Design   //Sinpol Design</text>
    <text clip-path="url(#r23)" x="346.81" y="153.31">//Sinpol Design   //Sinpol Design   //Sinpol Design   //Sinpol Design</text>
    <text clip-path="url(#r24)" x="128.94" y="163.70">//Sinpol Design   //Sinpol Design   //Sinpol Design   //Sinpol Design</text>
    <text clip-path="url(#r25)" x="332.78" y="163.70">//Sinpol Design   //Sinpol Design   //Sinpol Design   //Sinpol Design</text>
    <text clip-path="url(#r26)" x="117.62" y="174.83">//Sinpol Design   //Sinpol Design   //Sinpol Design   //Sinpol Design</text>
    <text clip-path="url(#r27)" x="342.26" y="174.83">//Sinpol Design   //Sinpol Design   //Sinpol Design   //Sinpol Design</text>
    <text clip-path="url(#r28)" x="107.96" y="185.96">//Sinpol Design   //Sinpol Design   //Sinpol Design   //Sinpol Design</text>
    <text clip-path="url(#r29)" x="352.57" y="185.96">//Sinpol Design   //Sinpol Design   //Sinpol Design   //Sinpol Design</text>
    <text clip-path="url(#r30)" x="96.18" y="197.09">//Sinpol Design   //Sinpol Design   //Sinpol Design   //Sinpol Design</text>
    <text clip-path="url(#r31)" x="365.41" y="197.09">//Sinpol Design   //Sinpol Design   //Sinpol Design   //Sinpol Design</text>
    <text clip-path="url(#r32)" x="89.48" y="208.22">//Sinpol Design   //Sinpol Design   //Sinpol Design   //Sinpol Design</text>
    <text clip-path="url(#r33)" x="166.48" y="208.22">//Sinpol Design   //Sinpol Design   //Sinpol Design   //Sinpol Design</text>
    <text clip-path="url(#r34)" x="385.78" y="208.22">//Sinpol Design   //Sinpol Design   //Sinpol Design   //Sinpol Design</text>
    <text clip-path="url(#r35)" x="131.86" y="208.96">//Sinpol Design   //Sinpol Design   //Sinpol Design   //Sinpol Design</text>
    <text clip-path="url(#r36)" x="371.06" y="208.96">//Sinpol Design   //Sinpol Design   //Sinpol Design   //Sinpol Design</text>
    <text clip-path="url(#r37)" x="428.35" y="208.96">//Sinpol Design   //Sinpol Design   //Sinpol Design   //Sinpol Design</text>
    <text clip-path="url(#r38)" x="79.09" y="219.35">//Sinpol Design   //Sinpol Design   //Sinpol Design   //Sinpol Design</text>
    <text clip-path="url(#r39)" x="379.70" y="219.35">//Sinpol Design   //Sinpol Design   //Sinpol Design   //Sinpol Design</text>
    <text clip-path="url(#r40)" x="70.52" y="230.48">//Sinpol Design   //Sinpol Design   //Sinpol Design   //Sinpol Design</text>
    <text clip-path="url(#r41)" x="387.24" y="230.48">//Sinpol Design   //Sinpol Design   //Sinpol Design   //Sinpol Design</text>
    <text clip-path="url(#r42)" x="62.36" y="241.62">//Sinpol Design   //Sinpol Design   //Sinpol Design   //Sinpol Design</text>
    <text clip-path="url(#r43)" x="395.35" y="241.62">//Sinpol Design   //Sinpol Design   //Sinpol Design   //Sinpol Design</text>
    <text clip-path="url(#r44)" x="53.98" y="252.74">//Sinpol Design   //Sinpol Design   //Sinpol Design   //Sinpol Design</text>
    <text clip-path="url(#r45)" x="410.52" y="252.74">//Sinpol Design   //Sinpol Design   //Sinpol Design   //Sinpol Design</text>
    <text clip-path="url(#r46)" x="45.77" y="263.88">//Sinpol Design   //Sinpol Design   //Sinpol Design   //Sinpol Design</text>
    <text clip-path="url(#r47)" x="127.30" y="263.88">//Sinpol Design   //Sinpol Design   //Sinpol Design   //Sinpol Design</text>
    <text clip-path="url(#r48)" x="416.53" y="263.88">//Sinpol Design   //Sinpol Design   //Sinpol Design   //Sinpol Design</text>
    <text clip-path="url(#r49)" x="35.28" y="275.01">//Sinpol Design   //Sinpol Design   //Sinpol Design   //Sinpol Design</text>
    <text clip-path="url(#r50)" x="127.43" y="275.01">//Sinpol Design   //Sinpol Design   //Sinpol Design   //Sinpol Design</text>
    <text clip-path="url(#r51)" x="427.72" y="275.01">//Sinpol Design   //Sinpol Design   //Sinpol Design   //Sinpol Design</text>
    <text clip-path="url(#r52)" x="33.63" y="286.14">//Sinpol Design   //Sinpol Design   //Sinpol Design   //Sinpol Design</text>
    <text clip-path="url(#r53)" x="132.25" y="286.14">//Sinpol Design   //Sinpol Design   //Sinpol Design   //Sinpol Design</text>
    <text clip-path="url(#r54)" x="432.96" y="286.14">//Sinpol Design   //Sinpol Design   //Sinpol Design   //Sinpol Design</text>
    <text clip-path="url(#r55)" x="24.92" y="297.27">//Sinpol Design   //Sinpol Design   //Sinpol Design   //Sinpol Design</text>
    <text clip-path="url(#r56)" x="139.33" y="297.27">//Sinpol Design   //Sinpol Design   //Sinpol Design   //Sinpol Design</text>
    <text clip-path="url(#r57)" x="439.03" y="297.27">//Sinpol Design   //Sinpol Design   //Sinpol Design   //Sinpol Design</text>
    <text clip-path="url(#r58)" x="19.02" y="308.40">//Sinpol Design   //Sinpol Design   //Sinpol Design   //Sinpol Design</text>
    <text clip-path="url(#r59)" x="140.26" y="308.40">//Sinpol Design   //Sinpol Design   //Sinpol Design   //Sinpol Design</text>
    <text clip-path="url(#r60)" x="447.88" y="308.39">//Sinpol Design   //Sinpol Design   //Sinpol Design   //Sinpol Design</text>
    <text clip-path="url(#r61)" x="18.64" y="319.53">//Sinpol Design   //Sinpol Design   //Sinpol Design   //Sinpol Design</text>
    <text clip-path="url(#r62)" x="144.57" y="319.53">//Sinpol Design   //Sinpol Design   //Sinpol Design   //Sinpol Design</text>
    <text clip-path="url(#r63)" x="454.03" y="319.53">//Sinpol Design   //Sinpol Design   //Sinpol Design   //Sinpol Design</text>
    <text clip-path="url(#r64)" x="9.92" y="330.66">//Sinpol Design   //Sinpol Design   //Sinpol Design   //Sinpol Design</text>
    <text clip-path="url(#r65)" x="151.01" y="330.66">//Sinpol Design   //Sinpol Design   //Sinpol Design   //Sinpol Design</text>
    <text clip-path="url(#r66)" x="459.03" y="330.66">//Sinpol Design   //Sinpol Design   //Sinpol Design   //Sinpol Design</text>
    <text clip-path="url(#r67)" x="7.79" y="341.79">//Sinpol Design   //Sinpol Design   //Sinpol Design   //Sinpol Design</text>
    <text clip-path="url(#r68)" x="161.59" y="341.79">//Sinpol Design   //Sinpol Design   //Sinpol Design   //Sinpol Design</text>
    <text clip-path="url(#r69)" x="460.11" y="341.79">//Sinpol Design   //Sinpol Design   //Sinpol Design   //Sinpol Design</text>
    <text clip-path="url(#r70)" x="4.29" y="352.92">//Sinpol Design   //Sinpol Design   //Sinpol Design   //Sinpol Design</text>
    <text clip-path="url(#r71)" x="167.67" y="352.92">//Sinpol Design   //Sinpol Design   //Sinpol Design   //Sinpol Design</text>
    <text clip-path="url(#r72)" x="465.26" y="352.92">//Sinpol Design   //Sinpol Design   //Sinpol Design   //Sinpol Design</text>
    <text clip-path="url(#r73)" x="2.66" y="364.05">//Sinpol Design   //Sinpol Design   //Sinpol Design   //Sinpol Design</text>
    <text clip-path="url(#r74)" x="176.88" y="364.05">//Sinpol Design   //Sinpol Design   //Sinpol Design   //Sinpol Design</text>
    <text clip-path="url(#r75)" x="467.58" y="364.05">//Sinpol Design   //Sinpol Design   //Sinpol Design   //Sinpol Design</text>
    <text clip-path="url(#r76)" x="2.45" y="375.19">//Sinpol Design   //Sinpol Design   //Sinpol Design   //Sinpol Design</text>
    <text clip-path="url(#r77)" x="193.51" y="375.19">//Sinpol Design   //Sinpol Design   //Sinpol Design   //Sinpol Design</text>
    <text clip-path="url(#r78)" x="469.30" y="375.18">//Sinpol Design   //Sinpol Design   //Sinpol Design   //Sinpol Design</text>
    <text clip-path="url(#r79)" x="0" y="386.31">//Sinpol Design   //Sinpol Design   //Sinpol Design   //Sinpol Design</text>
    <text clip-path="url(#r80)" x="205.04" y="386.31">//Sinpol Design   //Sinpol Design   //Sinpol Design   //Sinpol Design</text>
    <text clip-path="url(#r81)" x="469.21" y="386.31">//Sinpol Design   //Sinpol Design   //Sinpol Design   //Sinpol Design</text>
    <text clip-path="url(#r82)" x="223.04" y="397.45">//Sinpol Design   //Sinpol Design   //Sinpol Design   //Sinpol Design</text>
    <text clip-path="url(#r83)" x="300.06" y="397.45">//Sinpol Design   //Sinpol Design   //Sinpol Design   //Sinpol Design</text>
    <text clip-path="url(#r84)" x="0" y="397.36">//Sinpol Design   //Sinpol Design   //Sinpol Design   //Sinpol Design</text>
    <text clip-path="url(#r85)" x="471.17" y="397.36">//Sinpol Design   //Sinpol Design   //Sinpol Design   //Sinpol Design</text>
    <text clip-path="url(#r86)" x="30.67" y="398.19">//Sinpol Design   //Sinpol Design   //Sinpol Design   //Sinpol Design</text>
    <text clip-path="url(#r87)" x="265.44" y="398.19">//Sinpol Design   //Sinpol Design   //Sinpol Design   //Sinpol Design</text>
    <text clip-path="url(#r88)" x="492.10" y="398.19">//Sinpol Design   //Sinpol Design   //Sinpol Design   //Sinpol Design</text>
    <text clip-path="url(#r89)" x="2.26" y="408.58">//Sinpol Design   //Sinpol Design   //Sinpol Design   //Sinpol Design</text>
    <text clip-path="url(#r90)" x="232.97" y="408.58">//Sinpol Design   //Sinpol Design   //Sinpol Design   //Sinpol Design</text>
    <text clip-path="url(#r91)" x="470.33" y="408.58">//Sinpol Design   //Sinpol Design   //Sinpol Design   //Sinpol Design</text>
    <text clip-path="url(#r92)" x="0" y="419.71">//Sinpol Design   //Sinpol Design   //Sinpol Design   //Sinpol Design</text>
    <text clip-path="url(#r93)" x="252.76" y="419.71">//Sinpol Design   //Sinpol Design   //Sinpol Design   //Sinpol Design</text>
    <text clip-path="url(#r94)" x="471.97" y="419.71">//Sinpol Design   //Sinpol Design   //Sinpol Design   //Sinpol Design</text>
    <text clip-path="url(#r95)" x="0.81" y="430.84">//Sinpol Design   //Sinpol Design   //Sinpol Design   //Sinpol Design</text>
    <text clip-path="url(#r96)" x="272.63" y="430.84">//Sinpol Design   //Sinpol Design   //Sinpol Design   //Sinpol Design</text>
    <text clip-path="url(#r97)" x="470.23" y="430.84">//Sinpol Design   //Sinpol Design   //Sinpol Design   //Sinpol Design</text>
    <text clip-path="url(#r98)" x="4.48" y="441.97">//Sinpol Design   //Sinpol Design   //Sinpol Design   //Sinpol Design</text>
    <text clip-path="url(#r99)" x="287.25" y="441.97">//Sinpol Design   //Sinpol Design   //Sinpol Design   //Sinpol Design</text>
    <text clip-path="url(#r100)" x="470.96" y="441.97">//Sinpol Design   //Sinpol Design   //Sinpol Design   //Sinpol Design</text>
    <text clip-path="url(#r101)" x="369.87" y="453.10">//Sinpol Design   //Sinpol Design   //Sinpol Design   //Sinpol Design</text>
    <text clip-path="url(#r102)" x="4.69" y="453.02">//Sinpol Design   //Sinpol Design   //Sinpol Design   //Sinpol Design</text>
    <text clip-path="url(#r103)" x="303.18" y="453.02">//Sinpol Design   //Sinpol Design   //Sinpol Design   //Sinpol Design</text>
    <text clip-path="url(#r104)" x="466.11" y="453.02">//Sinpol Design   //Sinpol Design   //Sinpol Design   //Sinpol Design</text>
    <text clip-path="url(#r105)" x="25.62" y="453.84">//Sinpol Design   //Sinpol Design   //Sinpol Design   //Sinpol Design</text>
    <text clip-path="url(#r106)" x="335.25" y="453.84">//Sinpol Design   //Sinpol Design   //Sinpol Design   //Sinpol Design</text>
    <text clip-path="url(#r107)" x="487.04" y="453.84">//Sinpol Design   //Sinpol Design   //Sinpol Design   //Sinpol Design</text>
    <text clip-path="url(#r108)" x="5.87" y="464.23">//Sinpol Design   //Sinpol Design   //Sinpol Design   //Sinpol Design</text>
    <text clip-path="url(#r109)" x="311.46" y="464.23">//Sinpol Design   //Sinpol Design   //Sinpol Design   //Sinpol Design</text>
    <text clip-path="url(#r110)" x="462.67" y="464.23">//Sinpol Design   //Sinpol Design   //Sinpol Design   //Sinpol Design</text>
    <text clip-path="url(#r111)" x="326.97" y="475.36">//Sinpol Design   //Sinpol Design   //Sinpol Design   //Sinpol Design</text>
    <text clip-path="url(#r112)" x="463.37" y="475.36">//Sinpol Design   //Sinpol Design   //Sinpol Design   //Sinpol Design</text>
    <text clip-path="url(#r113)" x="7.37" y="475.35">//Sinpol Design   //Sinpol Design   //Sinpol Design   //Sinpol Design</text>
    <text clip-path="url(#r114)" x="11.77" y="486.49">//Sinpol Design   //Sinpol Design   //Sinpol Design   //Sinpol Design</text>
    <text clip-path="url(#r115)" x="335.18" y="486.49">//Sinpol Design   //Sinpol Design   //Sinpol Design   //Sinpol Design</text>
    <text clip-path="url(#r116)" x="453.76" y="486.49">//Sinpol Design   //Sinpol Design   //Sinpol Design   //Sinpol Design</text>
    <text clip-path="url(#r117)" x="14.54" y="497.62">//Sinpol Design   //Sinpol Design   //Sinpol Design   //Sinpol Design</text>
    <text clip-path="url(#r118)" x="337.40" y="497.62">//Sinpol Design   //Sinpol Design   //Sinpol Design   //Sinpol Design</text>
    <text clip-path="url(#r119)" x="450.59" y="497.62">//Sinpol Design   //Sinpol Design   //Sinpol Design   //Sinpol Design</text>
    <text clip-path="url(#r120)" x="17.83" y="508.76">//Sinpol Design   //Sinpol Design   //Sinpol Design   //Sinpol Design</text>
    <text clip-path="url(#r121)" x="347.32" y="508.76">//Sinpol Design   //Sinpol Design   //Sinpol Design   //Sinpol Design</text>
    <text clip-path="url(#r122)" x="444.09" y="508.76">//Sinpol Design   //Sinpol Design   //Sinpol Design   //Sinpol Design</text>
    <text clip-path="url(#r123)" x="24.52" y="519.88">//Sinpol Design   //Sinpol Design   //Sinpol Design   //Sinpol Design</text>
    <text clip-path="url(#r124)" x="346.95" y="519.88">//Sinpol Design   //Sinpol Design   //Sinpol Design   //Sinpol Design</text>
    <text clip-path="url(#r125)" x="433.79" y="519.88">//Sinpol Design   //Sinpol Design   //Sinpol Design   //Sinpol Design</text>
    <text clip-path="url(#r126)" x="29.28" y="531.02">//Sinpol Design   //Sinpol Design   //Sinpol Design   //Sinpol Design</text>
    <text clip-path="url(#r127)" x="352.57" y="531.02">//Sinpol Design   //Sinpol Design   //Sinpol Design   //Sinpol Design</text>
    <text clip-path="url(#r128)" x="429.47" y="531.02">//Sinpol Design   //Sinpol Design   //Sinpol Design   //Sinpol Design</text>
    <text clip-path="url(#r129)" x="39.09" y="542.15">//Sinpol Design   //Sinpol Design   //Sinpol Design   //Sinpol Design</text>
    <text clip-path="url(#r130)" x="358.45" y="542.15">//Sinpol Design   //Sinpol Design   //Sinpol Design   //Sinpol Design</text>
    <text clip-path="url(#r131)" x="41.73" y="553.28">//Sinpol Design   //Sinpol Design   //Sinpol Design   //Sinpol Design</text>
    <text clip-path="url(#r132)" x="357.32" y="553.28">//Sinpol Design   //Sinpol Design   //Sinpol Design   //Sinpol Design</text>
    <text clip-path="url(#r133)" x="52.07" y="564.41">//Sinpol Design   //Sinpol Design   //Sinpol Design   //Sinpol Design</text>
    <text clip-path="url(#r134)" x="359.85" y="564.41">//Sinpol Design   //Sinpol Design   //Sinpol Design   //Sinpol Design</text>
    <text clip-path="url(#r135)" x="59.63" y="575.54">//Sinpol Design   //Sinpol Design   //Sinpol Design   //Sinpol Design</text>
    <text clip-path="url(#r136)" x="361.95" y="575.54">//Sinpol Design   //Sinpol Design   //Sinpol Design   //Sinpol Design</text>
    <text clip-path="url(#r137)" x="111.84" y="586.67">//Sinpol Design   //Sinpol Design   //Sinpol Design   //Sinpol Design</text>
    <text clip-path="url(#r138)" x="418.45" y="586.67">//Sinpol Design   //Sinpol Design   //Sinpol Design   //Sinpol Design</text>
    <text clip-path="url(#r139)" x="362.90" y="586.59">//Sinpol Design   //Sinpol Design   //Sinpol Design   //Sinpol Design</text>
    <text clip-path="url(#r140)" x="77.22" y="587.41">//Sinpol Design   //Sinpol Design   //Sinpol Design   //Sinpol Design</text>
    <text clip-path="url(#r141)" x="154.13" y="587.41">//Sinpol Design   //Sinpol Design   //Sinpol Design   //Sinpol Design</text>
    <text clip-path="url(#r142)" x="383.83" y="587.41">//Sinpol Design   //Sinpol Design   //Sinpol Design   //Sinpol Design</text>
    <text clip-path="url(#r143)" x="82.66" y="597.80">//Sinpol Design   //Sinpol Design   //Sinpol Design   //Sinpol Design</text>
    <text clip-path="url(#r144)" x="333.71" y="597.80">//Sinpol Design   //Sinpol Design   //Sinpol Design   //Sinpol Design</text>
    <text clip-path="url(#r145)" x="92.79" y="608.93">//Sinpol Design   //Sinpol Design   //Sinpol Design   //Sinpol Design</text>
    <text clip-path="url(#r146)" x="108.91" y="620.06">//Sinpol Design   //Sinpol Design   //Sinpol Design   //Sinpol Design</text>
    <text clip-path="url(#r147)" x="123.32" y="631.19">//Sinpol Design   //Sinpol Design   //Sinpol Design   //Sinpol Design</text>
    <text clip-path="url(#r148)" x="184.70" y="642.32">//Sinpol Design   //Sinpol Design   //Sinpol Design   //Sinpol Design</text>
    <text clip-path="url(#r149)" x="261.60" y="642.32">//Sinpol Design   //Sinpol Design   //Sinpol Design   //Sinpol Design</text>
    <text clip-path="url(#r150)" x="338.50" y="642.32">//Sinpol Design   //Sinpol Design   //Sinpol Design   //Sinpol Design</text>
    <text clip-path="url(#r151)" x="150.08" y="643.06">//Sinpol Design   //Sinpol Design   //Sinpol Design   //Sinpol Design</text>
    <text clip-path="url(#r152)" x="226.98" y="643.06">//Sinpol Design   //Sinpol Design   //Sinpol Design   //Sinpol Design</text>
    <text clip-path="url(#r153)" x="303.89" y="643.06">//Sinpol Design   //Sinpol Design   //Sinpol Design   //Sinpol Design</text>
    <text clip-path="url(#r154)" x="172.26" y="653.46">//Sinpol Design   //Sinpol Design   //Sinpol Design   //Sinpol Design</text>
    <text clip-path="url(#r155)" x="202.62" y="664.59">//Sinpol Design   //Sinpol Design   //Sinpol Design   //Sinpol Design</text>
  </g>
</svg>
